<svg xmlns="http://www.w3.org/2000/svg" width="635.858" height="888.242" viewBox="0 0 635.858 888.242"><defs><style>.a{fill:#292929;}.b{fill:#3d547f;}.c{fill:#ffefce;}.d{fill:#282828;}.e{fill:#718fc8;}.f{fill:rgba(41,41,41,0.27);}.g{fill:rgba(113,143,200,0.27);}</style></defs><g transform="translate(-2633 -3638)"><g transform="translate(2633 3638)"><path class="a" d="M4060.785,5054.8,4053,5043l3.265,2.009,6.027,9.041Z" transform="translate(-3696.397 -4690.164)"/><path class="a" d="M3994.086,5023.628,3975,4995l3.265,2.009,17.328,25.866Z" transform="translate(-3637.985 -4654.218)"/><path class="a" d="M3927.386,4992.454,3897,4947l3.516,2.009,28.126,42.692Z" transform="translate(-3579.573 -4618.272)"/><path class="a" d="M3869.674,4970.267,3831,4912l1.507-1,38.674,58.513Z" transform="translate(-3530.148 -4591.313)"/><path class="a" d="M3836.674,4990.015,3798,4931.753l1.507-.753,38.674,58.262Z" transform="translate(-3505.435 -4606.291)"/><path class="a" d="M3803.674,5009.016,3765,4950.753l1.507-.753,38.674,58.262Z" transform="translate(-3480.722 -4620.519)"/><path class="a" d="M3770.674,5028.015,3732,4969.753l1.256-.753,38.674,58.262Z" transform="translate(-3456.01 -4634.748)"/><path class="a" d="M3737.423,5047.267,3699,4988.753l1.256-.753,38.674,58.262Z" transform="translate(-3431.297 -4648.976)"/><path class="a" d="M3674.468,5025.078,3626,4952l3.265,1.758,46.71,70.316Z" transform="translate(-3376.629 -4622.017)"/><path class="a" d="M3610.764,4998.4,3552,4910l3.265,1.758,57.006,85.886Z" transform="translate(-3321.213 -4590.564)"/><path class="a" d="M3547.06,4970.967,3478,4867l3.265,2.009,67.051,101.205Z" transform="translate(-3265.796 -4558.363)"/><path class="a" d="M3514.06,4987.72,3445,4883.753l1.507-.753,68.809,103.967Z" transform="translate(-3241.083 -4570.345)"/><path class="a" d="M3472.522,4994.164,3412,4902.753l1.507-.753,62.28,94.173Z" transform="translate(-3216.371 -4584.573)"/><path class="a" d="M3428.975,4997.092,3379,4921.753l1.256-.753,51.984,78.1Z" transform="translate(-3191.658 -4598.802)"/><path class="a" d="M3384.427,5000.02,3345,4940.753l1.507-.753,41.185,62.028Z" transform="translate(-3166.196 -4613.03)"/><path class="a" d="M3340.629,5002.947,3312,4959.753l1.507-.753,30.387,45.956Z" transform="translate(-3141.484 -4627.259)"/><path class="a" d="M3296.83,5005.875,3279,4979l1.507-1,19.588,29.884Z" transform="translate(-3116.771 -4641.487)"/><path class="b" d="M3443.164,4847.554,3351,4794.565,3376.113,4780l71.823,41.688,35.661-20.593,20.09,11.8Z" transform="translate(-3170.689 -4493.211)"/><path class="b" d="M3351,4838v30.136l92.164,52.988v-30.135Z" transform="translate(-3170.689 -4536.646)"/><path class="c" d="M3443.164,4886.554,3351,4833.314,3376.113,4819l71.823,41.688,35.661-20.593,20.09,11.552Z" transform="translate(-3170.689 -4522.417)"/><path class="c" d="M3778.522,4911v30.135L3718,4975.791v-30.136Z" transform="translate(-3445.525 -4591.313)"/><path class="a" d="M3497.686,4836.787l-57.508,33.148v-26.62l57.508-33.149Zm-149.673-18.333v-26.619l89.151,51.481v26.62Zm23.606-41.938,71.823,41.688,35.66-20.592,17.077,10.045-26.62,15.068-30.889,17.83-88.9-51.23Zm129.08,30.136-21.6-12.557-35.66,20.593L3371.62,4773,3345,4788.319v31.893l93.671,53.993,61.275-35.158.753-.5Z" transform="translate(-3166.196 -4487.969)"/><path class="a" d="M4251.273,6373.785,4246,6366l3.265,1.758,3.265,5.273Z" transform="translate(-3840.929 -5680.92)"/><path class="a" d="M4186.57,6345.606,4171,6322l3.265,2.009,13.812,20.844Z" transform="translate(-3784.764 -5647.97)"/><path class="a" d="M4122.117,6317.427,4096,6278l3.265,2.009,24.359,36.665Z" transform="translate(-3728.599 -5615.02)"/><path class="a" d="M4057.665,6290,4021,6235l3.265,1.758,34.656,52.486Z" transform="translate(-3672.433 -5582.819)"/><path class="a" d="M4022.167,6303.755l-37.167-56,1.507-.753,37.167,56Z" transform="translate(-3645.474 -5591.805)"/><path class="a" d="M3990.167,6322.006,3953,6265.753l1.507-.753,37.167,56Z" transform="translate(-3621.51 -5605.285)"/><path class="a" d="M3957.167,6341.006,3920,6284.753l1.256-.753,37.167,56Z" transform="translate(-3596.797 -5619.513)"/><path class="a" d="M3923.167,6360.006,3886,6303.753l1.507-.753,37.167,56Z" transform="translate(-3571.336 -5633.742)"/><path class="a" d="M3890.167,6379.006,3853,6322.753l1.507-.753,37.167,56Z" transform="translate(-3546.623 -5647.97)"/><path class="a" d="M3857.167,6398.006,3820,6341.753l1.507-.753,37.167,56Z" transform="translate(-3521.91 -5662.199)"/><path class="a" d="M3824.167,6417.006,3787,6360.753l1.256-.753,37.167,56Z" transform="translate(-3497.197 -5676.428)"/><path class="a" d="M3790.167,6436.006,3753,6380l1.507-1,37.167,56Z" transform="translate(-3471.736 -5690.656)"/><path class="a" d="M3757.167,6455.006,3720,6399l1.507-1,37.167,56.253Z" transform="translate(-3447.023 -5704.885)"/><path class="a" d="M3724.167,6474.006,3687,6418l1.256-1,37.167,56Z" transform="translate(-3422.31 -5719.113)"/><path class="a" d="M3690.167,6493.006,3653,6437l1.507-1,37.167,56.253Z" transform="translate(-3396.849 -5733.342)"/><path class="a" d="M3657.167,6512.006,3620,6456l1.507-1,37.167,56.253Z" transform="translate(-3372.136 -5747.57)"/><path class="a" d="M3624.167,6531.006,3587,6475l1.507-1,37.167,56.252Z" transform="translate(-3347.423 -5761.799)"/><path class="a" d="M3588.4,6546.239,3554,6494l1.256-1,36.414,55Z" transform="translate(-3322.71 -5776.027)"/><path class="a" d="M3544.359,6549.418,3520,6513l1.507-1,25.866,39.176Z" transform="translate(-3297.249 -5790.256)"/><path class="a" d="M3500.812,6552.6,3487,6532l1.507-1,15.319,23.606Z" transform="translate(-3272.536 -5804.484)"/><path class="a" d="M3457.265,6555.776,3454,6551l1.255-1,5.274,7.785Z" transform="translate(-3247.823 -5818.713)"/><path class="b" d="M3875,5933.086l29.884,17.077,33.149-19.086L3908.4,5914Z" transform="translate(-3563.098 -5342.431)"/><path class="b" d="M3590,6247.164l29.633,17.077v-92.165L3590,6155Z" transform="translate(-3349.67 -5522.909)"/><path class="b" d="M3590,6098.085,3623.149,6079l29.884,17.076-33.149,19.086Z" transform="translate(-3349.67 -5465.995)"/><path class="d" d="M3946.633,6202.8,3917,6185.472l27.373-48.216,2.762-1,.5-.251,7.785,32.145Z" transform="translate(-3594.551 -5508.681)"/><path class="d" d="M3912.269,6177.481l26.871,15.318,8.036-32.144-7.282-30.135-1.256.5Zm27.625,19.588h0L3908,6178.737l28.628-50.226,3.516-1.507,1.758-1,8.538,34.656-9.041,35.66Z" transform="translate(-3587.811 -5501.191)"/><path class="b" d="M3829.57,5990,3814,6053.787l27.122,35.911,9.041-10.8,9.041-71.823Z" transform="translate(-3517.417 -5399.345)"/><path class="d" d="M3810.265,6048.042l25.866,34.153,7.283-9.292,9.041-70.065-27.122-15.821Zm25.615,38.925L3807,6048.8l15.821-65.042,1.507-.753,31.391,18.081-9.543,73.078Z" transform="translate(-3512.175 -5394.103)"/><path class="c" d="M3875,5977.085l29.884,17.328,33.149-19.337L3908.149,5958Z" transform="translate(-3563.098 -5375.381)"/><path class="c" d="M3590,6142.086,3623.149,6123l29.633,17.077-33.149,19.336Z" transform="translate(-3349.67 -5498.945)"/><path class="d" d="M3794.113,6332.5l-18.081-10.3L3769,6281.771l5.525-4.521.753-.251Z" transform="translate(-3483.718 -5614.271)"/><path class="d" d="M3772.045,6314.459l14.063,8.036-17.077-49.724-3.767,3.014Zm18.584,12.054-1.758,1-19.588-11.3L3762,6274.278l7.283-5.274,1.507-1,19.588,58.011Z" transform="translate(-3478.476 -5607.531)"/><path class="c" d="M3749.181,6111.582l-18.835-55.5-.753.251q1.507,16.2,1.507,25.615v40.181l-22.1,12.556v-92.165l33.149-19.085,19.086,54.244.5-.251,18.835-76.343,33.4-19.086v92.164l-23.1,13.31v-40.432c0-2.26.251-4.521.251-7.031,0-2.763.251-9.041.753-19.337l-.5.251-18.583,76.846Z" transform="translate(-3438.785 -5393.354)"/><path class="d" d="M3718.6,6017.246l-19.588,11.3v-44.7c0-2.762.251-9.041.753-19.337l.251-2.762-3.516,2.009-18.584,77.1-21.6,12.306-18.835-55.5-3.013,1.758v1c1,10.547,1.507,19.337,1.507,25.364v39.176l-19.086,11.05v-88.648l30.638-17.83,19.337,54.243,2.762-1.507,18.835-76.343,3.767-2.009L3718.6,5928.6Zm-104.972,58.764-26.62-15.57v-88.4l26.62,15.319Zm5.022-124.058,26.871,15.318-30.135,17.328-26.871-15.319Zm41.688-24.108,30.135-17.328,26.62,15.319-26.368,15.318-3.767,2.009Zm61.526-2.763L3690.479,5907l-34.656,19.839-.251,1.758,29.633,17.077-17.579,71.32-17.83-50.728-31.14-17.831L3584,5968.526V6062.2l31.391,18.081L3639,6066.718v-40.934c0-4.269-.251-9.794-.753-16.323l16.072,46.961,1.256.753,2.762-1.507,22.1-13.059,15.821-64.791c-.251,2.762-.251,4.771-.251,6.027,0,2.511-.251,4.771-.251,7.032v41.185l1.507,1,1.507-.753,23.1-13.311Z" transform="translate(-3345.177 -5337.189)"/><path class="a" d="M4710.771,6946.283,4706,6939l3.013,1.758,3.014,4.521Z" transform="translate(-4185.41 -6110.024)"/><path class="a" d="M4646.067,6919.6,4631,6897l3.265,1.758,13.31,20.09Z" transform="translate(-4129.245 -6078.571)"/><path class="a" d="M4582.364,6892.171,4557,6854l3.265,1.758,23.606,35.66Z" transform="translate(-4073.828 -6046.37)"/><path class="a" d="M4520.409,6865.988,4485,6813l3.265,1.758,33.4,50.477Z" transform="translate(-4019.91 -6015.666)"/><path class="a" d="M4456.454,6838.809,4411,6770l3.265,1.758,43.7,66.047Z" transform="translate(-3964.493 -5983.465)"/><path class="a" d="M4392.75,6811.379,4337,6727l3.265,2.009,53.993,81.366Z" transform="translate(-3909.076 -5951.263)"/><path class="a" d="M4329.047,6784.7,4263,6685l3.014,1.758,64.54,96.936Z" transform="translate(-3853.66 -5919.811)"/><path class="a" d="M4267.59,6760.264,4192,6646.5l.753-.5,1.507.753,74.585,112.757Z" transform="translate(-3800.49 -5890.604)"/><path class="a" d="M4234.339,6778.515,4159,6664.753l1.507-.753,75.338,113.762Z" transform="translate(-3775.778 -5904.084)"/><path class="a" d="M4201.339,6797.515,4126,6683.753l1.256-.753,75.589,113.761Z" transform="translate(-3751.065 -5918.313)"/><path class="a" d="M4167.589,6816.515,4092,6702.753l1.507-.753,75.59,113.762Z" transform="translate(-3725.603 -5932.542)"/><path class="a" d="M4133.585,6834.008,4059,6721.753l1.507-.753,75.339,113.761-.5.251Z" transform="translate(-3700.89 -5946.77)"/><path class="a" d="M4090.289,6837.689,4026,6740.753l1.507-.753,65.8,99.447Z" transform="translate(-3676.178 -5960.999)"/><path class="a" d="M4046.993,6841.119,3993,6759.753l1.256-.753,55.75,83.877Z" transform="translate(-3651.465 -5975.227)"/><path class="a" d="M4003.445,6844.549l-43.445-65.8,1.255-.753,45.455,68.559Z" transform="translate(-3626.752 -5989.456)"/><path class="a" d="M3959.4,6848.23l-33.4-50.477,1.507-.753,35.158,52.988Z" transform="translate(-3601.291 -6003.684)"/><path class="a" d="M3916.1,6851.66l-23.1-34.907,1.507-.753,24.862,37.418Z" transform="translate(-3576.578 -6017.913)"/><path class="a" d="M3872.808,6855.341,3860,6836l1.256-1,14.816,22.1Z" transform="translate(-3551.865 -6032.142)"/><path class="a" d="M3829.511,6858.771,3827,6855l1.256-1,4.269,6.529Z" transform="translate(-3527.152 -6046.37)"/><path class="b" d="M3969,6699v30.387l90.909,52.234v-30.135Z" transform="translate(-3633.492 -5930.295)"/><path class="d" d="M4108.521,6635.095l20.844,15.318,12.808-18.834v-14.063l-21.346,4.771Zm21.6,19.588L4104,6635.6l15.319-16.072L4143.93,6614l1.255.753v17.831Z" transform="translate(-3734.59 -5866.641)"/><path class="d" d="M4254.3,6725.88c1.507.251,5.776,1,18.835,3.516l5.776-11.3v-17.83l-20.844,1.758-10.548,13.561C4250.278,6720.1,4253.292,6724.624,4254.3,6725.88Zm20.593,7.031-1-.251c-8.036-1.507-19.839-3.767-20.592-3.767-1,0-1,0-8.79-12.556l-.5-.753,12.557-16.575,24.108-2.009,1.256.753v21.1Z" transform="translate(-3839.432 -5928.797)"/><path class="b" d="M4113.65,6627.486l-53.741,31.14L3969,6606.14l53.993-31.14,19.588,11.552-29.382,16.825,14.314,8.288,27.122-15.821,19.839,11.552-27.373,15.57,17.328,10.045,29.382-17.077Z" transform="translate(-3633.492 -5837.435)"/><path class="c" d="M4112.65,6662.234l-53.741,31.14L3968,6640.889,4021.993,6610l19.588,11.3-29.382,16.825,14.314,8.288,27.122-15.57,19.839,11.3-27.373,15.57,17.328,10.045,29.382-17.077Z" transform="translate(-3632.743 -5863.645)"/><path class="b" d="M4308.122,6704v19.588l-6.529,4.269s-3.516,1.507-3.768,1.507c-.5,0-16.825-10.3-16.825-10.3l5.524-3.014Z" transform="translate(-3867.14 -5934.039)"/><path class="b" d="M4172.136,6621v16.323l-15.068,8.79L4142,6637.825l7.534-4.52Z" transform="translate(-3763.047 -5871.883)"/><path class="d" d="M4107.65,6651.626l-50.728,29.382v-26.62l50.728-29.382Zm-141.636-21.346v-26.62l87.9,50.728v26.62Zm52.486-58.764,16.574,9.794-29.382,16.826,17.328,10.045,27.122-15.821,16.826,9.794-27.373,15.57,20.341,11.8,29.382-17.077,16.826,9.794-50.728,29.382-87.9-50.729Zm92.164,49.975-21.346-12.557-29.382,17.077-14.063-8.287,24.862-14.314.753-.5v-1.758l-21.346-12.305-27.122,15.821-11.3-6.529,27.875-16.072v-1.758L4018.5,6568l-55.5,32.145v31.894l92.415,53.239,55.248-31.894Z" transform="translate(-3628.999 -5832.193)"/><path class="c" d="M4331,6817.14v30.136l53.741-31.14V6786Z" transform="translate(-3904.583 -5995.447)"/><path class="a" d="M4077.278,4377.292,4071,4368l3.265,1.758,4.521,6.78Z" transform="translate(-3709.877 -4184.676)"/><path class="a" d="M4013.575,4349.861,3997,4325l3.265,1.758,14.565,22.351Z" transform="translate(-3654.46 -4152.475)"/><path class="a" d="M3949.871,4322.432,3923,4282l3.013,2.009,25.113,37.67Z" transform="translate(-3599.044 -4120.273)"/><path class="a" d="M3885.167,4295.253,3848,4239l3.265,2.009,35.409,53.239Z" transform="translate(-3542.878 -4088.072)"/><path class="a" d="M3821.463,4268.571,3774,4197l3.265,1.758,45.706,68.81Z" transform="translate(-3487.462 -4056.619)"/><path class="a" d="M3757.76,4241.142,3700,4154l3.013,1.758,56.253,84.63Z" transform="translate(-3432.046 -4024.417)"/><path class="a" d="M3703.042,4224.944,3638,4127l1.507-1,65.042,98.191Z" transform="translate(-3385.615 -4003.449)"/><path class="a" d="M3670.042,4244.694,3605,4146.753l1.507-.753,64.791,97.94Z" transform="translate(-3360.903 -4018.427)"/><path class="a" d="M3626.495,4248.375,3572,4165.753l1.256-.753,56.5,85.133Z" transform="translate(-3336.19 -4032.655)"/><path class="a" d="M3582.45,4251.8,3538,4184.753l1.507-.753,46.208,69.563Z" transform="translate(-3310.729 -4046.884)"/><path class="a" d="M3539.153,4255.234,3505,4203.753l1.507-.753,35.66,53.993Z" transform="translate(-3286.016 -4061.112)"/><path class="a" d="M3495.606,4258.665,3472,4223l1.507-1,25.364,38.423Z" transform="translate(-3261.303 -4075.341)"/><path class="a" d="M3452.31,4262.095,3439,4242l1.507-1,15.068,22.853Z" transform="translate(-3236.59 -4089.569)"/><path class="a" d="M3409.014,4266.273l-3.014-4.521,1.256-.753,4.771,7.283Z" transform="translate(-3211.877 -4104.547)"/><path class="a" d="M3631,4124.5l20.341-12.305.251-44.2-7.785,1.256Z" transform="translate(-3380.374 -3960.015)"/><path class="d" d="M3639.821,4064.771l-11.8,50.477,16.574-10.045.251-41.436Zm-15.821,54.5,13.31-57.258,10.547-2.009-.251,46.961-21.848,13.31Z" transform="translate(-3375.131 -3954.024)"/><path class="b" d="M3728,3933.574,3756.126,3917l13.059,64.038-26.369,31.643Z" transform="translate(-3453.014 -3846.935)"/><path class="d" d="M3724.516,3929.086l13.812,74.836,24.108-28.378-12.556-61.526Zm12.054,81.617L3721,3927.579,3750.884,3910l1.507.753,13.31,65.544Z" transform="translate(-3447.772 -3841.693)"/><path class="b" d="M3518,3812.323,3546.126,3796l10.547,55-23.857,40.432Z" transform="translate(-3295.751 -3756.322)"/><path class="d" d="M3514.516,3807.834l13.812,74.083,21.346-36.414-9.794-52.486Zm12.305,82.622L3511,3806.328,3540.884,3789l1.507.753,10.547,56.253Z" transform="translate(-3290.509 -3751.08)"/><path class="b" d="M3529.734,3960.193l-29.633-16.826-8.79-45.454c-.251-1.758-1-5.525-2.009-11.05-.753-5.525-1.507-10.045-2.009-13.812a78.477,78.477,0,0,1-1.507,9.292c-.753,3.767-1.507,7.031-2.26,10.045-.753,2.762-3.767,14.816-9.041,35.911l-29.633-17.077L3422,3806l24.108,13.812,10.045,51.983c2.26,11.552,4.018,19.086,4.771,25.615.753-4.018,1.507-7.785,2.763-14.314,1.506-6.529,2.762-11.8,4.018-15.821l8.036-30.136,23.1,13.31,7.785,39.176c1.507,6.529,2.762,13.812,4.269,21.848,1.256,8.036,2.009,12.305,2.511,16.323.5-4.269,2.26-10.045,4.771-20.09l10.045-40.432,24.108,13.812Z" transform="translate(-3223.859 -3763.81)"/><path class="b" d="M3422,3756.574,3450.377,3740l23.857,14.063-28.126,16.323Z" transform="translate(-3223.859 -3714.385)"/><path class="b" d="M3636,3880.574,3664.377,3864l22.853,13.31-28.126,16.574Z" transform="translate(-3384.118 -3807.245)"/><path class="b" d="M3845,4001.323,3873.377,3985l23.857,13.812-28.126,16.323Z" transform="translate(-3540.632 -3897.858)"/><path class="c" d="M3425,3795.574,3453.377,3779l23.355,13.561.251.5-27.875,16.323Z" transform="translate(-3226.106 -3743.591)"/><path class="c" d="M3633,3919.323,3661.377,3903l22.853,13.31-28.126,16.323Z" transform="translate(-3381.871 -3836.451)"/><path class="c" d="M3842,4039.574,3870.377,4023l23.857,13.812-28.126,16.574Z" transform="translate(-3538.385 -3926.315)"/><path class="d" d="M3527.752,3902.261l21.346-74.836,16.826-9.543,7.534-4.52-21.346,74.585Zm-30.638-14.566-8.79-44.7c-.251-1.758-1-5.525-2.009-11.05-.753-5.525-1.507-10.045-2.009-13.561h-3.014a84.192,84.192,0,0,1-1.507,9.041q-1.13,5.274-2.26,9.794c-.753,3.013-3.516,14.314-8.538,34.154l-27.122-15.57-22.1-101.456,20.593,11.8,9.794,51.23c2.26,11.552,3.516,18.835,4.521,25.364l3.265,1.758c.5-4.018,1.507-9.292,2.762-15.57,1.507-6.53,2.763-11.8,4.018-16.072l7.534-28.126,1.758,1,19.086,10.8,7.785,38.925c1.256,6.278,2.511,13.561,4.018,21.6,1.256,8.036,2.009,12.305,2.511,16.073l3.265,1.758c.5-4.269,2.009-11.3,4.521-21.346l9.543-38.422,21.346,12.054-21.848,76.092Zm-76.343-136.363,25.113-14.817,20.844,12.305-25.113,14.565Zm53.49,31.14,25.364-14.816,19.839,11.552-25.113,14.816-17.077-10.045Zm52.486,30.135,25.364-14.566,20.844,12.055-5.525,3.264-19.588,11.3-14.314-8.036Zm50.979-3.265-25.615-15.068-29.633,17.328-10.3,41.185c-1.255,4.771-2.26,8.79-3.013,12.305-.251-2.511-.753-5.274-1.256-8.539-1.507-8.287-2.762-15.57-4.269-21.848l-7.534-38.172,28.126-16.574h0l-.251-1.758-24.36-14.063-29.633,17.328-8.287,30.638c-1.256,4.018-2.511,9.543-4.018,16.072-.5,2.26-.754,4.52-1.256,6.529-.753-5.022-2.009-11.05-3.265-17.83l-9.794-50.979,28.126-16.323h0l-.251-1.758L3445.884,3733,3416,3750.579l23.1,106.981,30.889,17.83h0l1.255-.753c5.274-21.095,8.539-33.651,9.292-36.665s1.507-6.278,2.26-9.794c.251,1.255.251,2.762.5,4.269,1,5.525,1.758,9.292,2.009,11.3l9.041,45.706,30.889,17.83,29.382-17.328Z" transform="translate(-3219.366 -3709.143)"/><path class="c" d="M3851,4135.429l28.126-16.574,22.6-78.854-28.126,16.323Z" transform="translate(-3545.125 -3939.046)"/><path class="e" d="M4369.808,5639.337,4357,5620l3.265,2.009,10.8,16.575Z" transform="translate(-3924.054 -5122.263)"/><path class="a" d="M4305.355,5611.907,4282,5577l3.265,1.758,21.346,32.4Z" transform="translate(-3867.889 -5090.062)"/><path class="a" d="M4240.9,5583.979,4207,5533l3.265,1.758,31.894,48.217Z" transform="translate(-3811.723 -5057.111)"/><path class="a" d="M4194.172,5582.011,4156,5524h1.758l37.92,57.257Z" transform="translate(-3773.531 -5050.371)"/><path class="a" d="M4152.934,5589.028,4112,5527.251l1.758-.251,40.683,61.275Z" transform="translate(-3740.581 -5052.618)"/><path class="a" d="M4111.7,5596.3l-43.7-66.047,1.758-.251,43.445,65.293Z" transform="translate(-3707.63 -5054.864)"/><path class="a" d="M4071.459,5603.064,4025,5533.251l2.009-.251,45.957,69.312Z" transform="translate(-3675.429 -5057.111)"/><path class="a" d="M4028.7,5605.558l-44.7-67.805,1.256-.753,45.956,69.06A7.429,7.429,0,0,0,4028.7,5605.558Z" transform="translate(-3644.725 -5060.106)"/><path class="a" d="M3989.176,5615.769,3950,5556.753l1.507-.753,40.181,60.522C3990.934,5616.271,3989.929,5616.02,3989.176,5615.769Z" transform="translate(-3619.263 -5074.335)"/><path class="a" d="M3949.14,5623.966,3918,5577a5.487,5.487,0,0,0,1.255-1l32.9,49.473Z" transform="translate(-3595.3 -5089.313)"/><path class="a" d="M3918.57,5641.368,3903,5617.763V5615l19.337,28.88A32.682,32.682,0,0,1,3918.57,5641.368Z" transform="translate(-3584.066 -5118.519)"/><path class="b" d="M4001.777,5258.124q-20.341-11.677-20.341-38.423a37.491,37.491,0,0,1,.5-5.273l20.593,7.534,12.305-7.534c2.762.251,2.762.251,4.771-1l9.543-7.534a130.367,130.367,0,0,0-28.378-22.853c-9.292-5.273-17.077-8.036-23.857-8.036a18.848,18.848,0,0,0-9.292,2.26h0l-1,.5a.54.54,0,0,0-.5.5L3940,5193.835l16.072,9.794v1.255a69.046,69.046,0,0,0,.5,10.3l-1.255-.753-5.776,3.013-.5,33.9s23.606,28.377,23.857,28.628c.5.251,25.615,6.278,25.615,6.278l9.041-5.022a63.563,63.563,0,0,0,17.579,5.525v-21.095a95.145,95.145,0,0,1-11.552-2.511A52,52,0,0,1,4001.777,5258.124Z" transform="translate(-3611.775 -4789.015)"/><path class="c" d="M3997.778,5287.872c-13.561-7.785-20.341-20.592-20.341-38.171a33.7,33.7,0,0,1,.251-5.274l20.592,7.534,12.557-7.534c2.762,0,2.762,0,4.771-1l4.771-4.019a5.15,5.15,0,0,0,.5-7.785,119.878,119.878,0,0,0-24.36-18.835c-9.041-5.273-17.077-7.785-23.857-7.785a20.008,20.008,0,0,0-9.041,2.009h0l-1,.5c-.251.251-.5.251-.753.5L3936,5223.583l15.821,9.794v1.255a74.547,74.547,0,0,0,.753,10.548l-1.255-1-5.776,3.265-.5,33.651s23.355,28.378,23.857,28.629c.251.251,25.364,6.278,25.364,6.278l9.292-5.022c6.278,3.013,11.8-3.265,17.077-2.512l.5-12.808a86.141,86.141,0,0,1-11.552-2.762A51.968,51.968,0,0,1,3997.778,5287.872Z" transform="translate(-3608.779 -4811.481)"/><path class="d" d="M4004.558,5274.977l.753.5a60.41,60.41,0,0,0,15.319,5.023V5262.42a68.115,68.115,0,0,1-10.3-2.26,72.5,72.5,0,0,1-12.305-5.273h0c-13.812-8.036-21.095-21.346-21.095-39.678,0-1.758.251-3.516.251-5.273l.251-2.01,21.848,8.036,12.807-7.785.753.754c2.009,1.758,3.767,3.516,5.274,5.022l6.278-12.305a128.663,128.663,0,0,0-27.624-21.848c-8.79-5.022-16.574-7.785-22.853-7.785h0a18.628,18.628,0,0,0-8.539,2.009l-1.255.754a.246.246,0,0,0-.251.251l-23.857,14.314,14.565,8.789v2.26a72.446,72.446,0,0,0,.5,10.3l.5,3.265-3.265-2.26-4.269,2.26-.251,32.4c8.538,10.3,21.095,25.615,23.1,27.875,2.26.5,15.319,3.768,24.36,5.776Zm19.086,8.036-1.256.753h-.5a62.836,62.836,0,0,1-17.077-5.273l-9.292,4.771h-.5c-25.364-6.027-25.615-6.278-25.866-6.529s-.5-.251-24.108-28.88l-.5-.5.5-35.158,6.781-3.767c-.251-2.762-.251-5.525-.251-8.036v-.5l-15.57-11.8,26.117-15.821c.251,0,.5,0,.5-.251l1.758-1h.251a21.954,21.954,0,0,1,9.292-2.009h0c7.032,0,15.068,2.763,24.611,8.287,10.045,5.776,19.588,13.561,28.88,23.1l.753.753-8.538,16.574-1.256,1-1-1c-1.758-1.758-3.516-3.767-5.776-5.775l-12.054,7.282-19.337-7.031v3.014c0,17.328,6.278,29.382,19.337,36.916a50.419,50.419,0,0,0,11.552,5.023,91.253,91.253,0,0,0,11.3,2.511l1.256.251Z" transform="translate(-3608.779 -4784.522)"/><path class="c" d="M4006.4,5327.538c0-1.758.251-3.265.251-4.771L3987.561,5319l-13.059,9.543-.5,30.638s1.758,2.009,8.538,10.3l7.534,3.768,26.62-15.821-.753-.5C4010.163,5348.131,4006.4,5341.853,4006.4,5327.538Z" transform="translate(-3637.236 -4896.853)"/><path class="b" d="M3941.45,5267.377c-6.027-3.516-10.547-3.767-13.812-.753-3.516,2.763-5.023,8.538-5.023,17.077,0,17.831,6.781,30.638,20.09,38.423a53.627,53.627,0,0,0,12.054,5.023,85.751,85.751,0,0,0,11.552,2.511v21.095c-7.785-1-16.575-4.269-26.118-10.045-14.063-8.036-24.61-18.081-32.144-30.387a80.548,80.548,0,0,1-11.05-41.436c0-9.543,1.758-16.826,5.274-22.1a18.386,18.386,0,0,1,15.57-7.785c6.78,0,14.816,2.763,23.857,8.036,10.045,5.776,19.337,13.31,28.629,22.853l-7.785,15.319c-3.265-3.516-6.78-7.032-10.045-10.046A80.269,80.269,0,0,0,3941.45,5267.377Z" transform="translate(-3579.573 -4836.943)"/><path class="c" d="M4165.785,5314.072,4192.4,5298l-7.534,15.319L4158,5329.391Z" transform="translate(-3775.029 -4881.126)"/><path class="c" d="M4173,5552.072,4199.62,5536v21.095L4173,5573.167Z" transform="translate(-3786.262 -5059.357)"/><path class="d" d="M3986.931,5329.434l-23.606,14.063v-17.328l23.606-14.314Zm-50.477,5.525c-13.812-7.785-24.359-17.831-31.642-29.884a80.079,80.079,0,0,1-10.8-40.683c0-9.292,1.758-16.323,5.022-21.095a16.647,16.647,0,0,1,14.314-7.283h0c6.53,0,14.314,2.763,23.1,7.785a121.674,121.674,0,0,1,27.373,21.848l-6.027,12.305c-3.014-2.763-6.027-5.776-8.79-8.287a59.342,59.342,0,0,0-11.3-8.288c-6.529-3.767-11.8-3.767-15.57-.5s-5.525,9.292-5.525,18.333c0,18.332,7.031,31.642,20.844,39.678a72.51,72.51,0,0,0,12.305,5.273,84.892,84.892,0,0,0,10.3,2.26V5344.5C3953.029,5343.246,3945.244,5339.981,3936.454,5334.958Zm47.212-71.321-21.848,13.059,2.009-4.269,3.014-5.776,21.848-13.31Zm-33.149,57.509a55.612,55.612,0,0,1-11.552-5.023c-13.059-7.534-19.337-19.588-19.337-36.916,0-8.036,1.507-13.31,4.52-16.072,2.762-2.512,6.781-2.009,12.054,1a63.526,63.526,0,0,1,10.547,7.785c3.265,2.763,11.05,10.8,11.05,10.8l28.126-17.077,8.538-16.575h0l-1.758-1.507-26.62,16.072c-9.041-9.292-18.333-16.826-28.126-22.351-9.292-5.524-17.579-8.287-24.611-8.287h0c-7.283,0-12.807,2.763-16.825,8.538-3.516,5.274-5.525,13.059-5.525,22.853a81.05,81.05,0,0,0,11.3,42.189c7.534,12.557,18.583,22.853,32.647,31.14,9.292,5.273,27.122,10.045,27.122,10.045l27.875-16.825v-23.1l-1.758-.251-26.871,16.072C3957.8,5322.9,3954.033,5322.151,3950.518,5321.146Z" transform="translate(-3575.08 -4832.45)"/><path class="a" d="M4517.027,4760.789,4511,4752l3.265,1.758,4.019,6.278Z" transform="translate(-4039.38 -4472.243)"/><path class="a" d="M4452.323,4732.611,4436,4708l3.265,1.758,14.565,22.1Z" transform="translate(-3983.215 -4439.292)"/><path class="a" d="M4387.871,4704.432,4361,4664l3.265,2.009,25.113,37.669Z" transform="translate(-3927.05 -4406.342)"/><path class="a" d="M4324.167,4677,4287,4621h0l3.014,1.758,35.66,53.49Z" transform="translate(-3871.633 -4374.14)"/><path class="a" d="M4290.418,4693.755l-37.418-56,1.507-.753,37.167,56Z" transform="translate(-3846.171 -4386.122)"/><path class="a" d="M4257.167,4712.755l-37.167-56,1.507-.753,37.167,56Z" transform="translate(-3821.459 -4400.351)"/><path class="a" d="M4224.167,4731.755l-37.167-56,1.507-.753,37.167,56Z" transform="translate(-3796.746 -4414.58)"/><path class="a" d="M4191.167,4750.755l-37.167-56,1.256-.753,37.418,56Z" transform="translate(-3772.033 -4428.808)"/><path class="a" d="M4158.167,4770.006,4121,4713.753l1.256-.753,37.167,56Z" transform="translate(-3747.32 -4443.037)"/><path class="a" d="M4124.167,4789.006,4087,4732.753l1.507-.753,37.167,56Z" transform="translate(-3721.859 -4457.265)"/><path class="a" d="M4090.414,4806.5,4054,4751.753l1.507-.753,37.167,56-.753.5Z" transform="translate(-3697.146 -4471.494)"/><path class="a" d="M4046.866,4809.929,4021,4770.753l1.256-.753,27.624,41.688Z" transform="translate(-3672.433 -4485.722)"/><path class="a" d="M4002.57,4813.108,3987,4789.753l1.507-.753,17.328,25.866Z" transform="translate(-3646.972 -4499.951)"/><path class="a" d="M3959.022,4816.287,3954,4809l1.507-1,6.78,10.3Z" transform="translate(-3622.259 -4514.18)"/><path class="b" d="M4144.379,4311.076,4114.5,4294l-54.5,31.391,29.633,17.328Z" transform="translate(-3701.639 -4129.259)"/><path class="c" d="M4142.379,4344.076,4112.5,4327l-54.5,31.642,29.633,17.077Z" transform="translate(-3700.141 -4153.972)"/><path class="b" d="M4060,4511.164l29.633,17.077v-91.913L4060,4419Z" transform="translate(-3701.639 -4222.869)"/><path class="e" d="M4304.624,4482.282,4292.319,4475,4277,4483.789v14.565Z" transform="translate(-3864.144 -4264.805)"/><path class="e" d="M4306.884,4622.538,4291.565,4614,4277,4622.287v17.328Z" transform="translate(-3864.144 -4368.898)"/><path class="d" d="M4301.624,4510.283l-12.3-7.283L4274,4511.789v14.566Z" transform="translate(-3861.898 -4285.773)"/><path class="d" d="M4303.884,4650.538,4288.565,4642,4274,4650.287v17.328Z" transform="translate(-3861.898 -4389.867)"/><path class="d" d="M4086.647,4426.879V4338.23l51.732-29.885v16.574L4108.5,4342v18.081l27.624-15.821v16.324l-11.552,6.781h0l-16.072,9.292V4397.5l29.884-17.328v16.826Zm-29.634-15.319v-88.648l26.62,15.319v88.648ZM4110,4290.516l26.871,15.319-51.732,29.884-26.62-15.57Zm15.319,45.454,9.292,5.525-23.1,13.31v-11.05Zm-.753,34.907,12.305,6.78-25.364,14.565v-13.812Zm16.826,5.776-13.812-7.534,11.552-6.78v-21.6l-10.8-6.529,13.059-7.534V4304.83L4110,4287l-56,32.4v93.922l31.14,17.83,56.253-32.4Z" transform="translate(-3697.146 -4124.018)"/><path class="c" d="M4232.746,4454.164,4178,4485.555v-91.913L4232.746,4362v19.839l-29.884,17.328v14.565l27.625-16.072v20.091l-27.625,15.82V4450.9l29.884-17.077Z" transform="translate(-3790.006 -4180.183)"/><path class="a" d="M3849.068,5755.853,3834,5733a42.354,42.354,0,0,1,3.516,2.512l11.552,17.327Z" transform="translate(-3532.394 -5206.885)"/><path class="a" d="M3793.633,5741.7,3764,5697c1,.251,1.758.753,2.762,1l27.875,42.19C3794.386,5740.7,3793.884,5741.2,3793.633,5741.7Z" transform="translate(-3479.973 -5179.926)"/><path class="a" d="M3743.418,5733.252,3706,5677c1,.251,1.758.5,2.511.753l36.163,54.5C3744.171,5732.5,3743.92,5733,3743.418,5733.252Z" transform="translate(-3436.539 -5164.949)"/><path class="a" d="M3695.943,5731.289,3653,5667a6.956,6.956,0,0,1,2.26.251l41.939,63.285A5.5,5.5,0,0,0,3695.943,5731.289Z" transform="translate(-3396.849 -5157.459)"/><path class="a" d="M3651.458,5733.064,3605,5663h2.009l45.957,69.312-1.255.753Z" transform="translate(-3360.903 -5154.464)"/><path class="a" d="M3609.221,5738.083,3560,5664.251a5.532,5.532,0,0,1,2.009-.251l48.719,73.33Z" transform="translate(-3327.204 -5155.213)"/><path class="a" d="M3568.477,5745.594,3518,5669.251c.753,0,1.255-.251,1.758-.251l50.477,75.841C3569.732,5745.092,3568.979,5745.343,3568.477,5745.594Z" transform="translate(-3295.751 -5158.958)"/><path class="a" d="M3528.979,5755.348,3478,5678.5a6.392,6.392,0,0,1,1.758-.5l50.979,76.846A6.393,6.393,0,0,0,3528.979,5755.348Z" transform="translate(-3265.796 -5165.697)"/><path class="a" d="M3491.226,5766.343,3441,5690.5a3.57,3.57,0,0,1,1.507-.5l50.477,76.092A3.725,3.725,0,0,1,3491.226,5766.343Z" transform="translate(-3238.088 -5174.684)"/><path class="a" d="M3453.719,5778.334,3405,5704.753l1.507-.753,48.97,74.083A4.277,4.277,0,0,0,3453.719,5778.334Z" transform="translate(-3211.129 -5185.168)"/><path class="a" d="M3416.208,5791.316,3370,5721.753l1.256-.753h.251l46.71,70.316Z" transform="translate(-3184.918 -5197.899)"/><path class="a" d="M3379.189,5804.289,3337,5740.753l1.507-.753,42.692,64.54A6.233,6.233,0,0,1,3379.189,5804.289Z" transform="translate(-3160.205 -5212.127)"/><path class="a" d="M3343.162,5817.75,3307,5763c.251-.251.753-.5,1.256-1l37.418,56.5C3344.92,5818.252,3343.916,5818,3343.162,5817.75Z" transform="translate(-3137.739 -5228.603)"/><path class="a" d="M3307.624,5833.194,3280,5791.256a5.494,5.494,0,0,0,1-1.256l29.382,44.449A29.573,29.573,0,0,0,3307.624,5833.194Z" transform="translate(-3117.52 -5249.571)"/><path class="a" d="M3283.05,5860.588,3272,5844.014V5841l14.816,22.351C3285.561,5862.346,3284.305,5861.593,3283.05,5860.588Z" transform="translate(-3111.529 -5287.763)"/><path class="e" d="M3480.769,5613.83c0,10.045-13.561,18.081-29.884,18.081-16.574,0-29.884-8.036-29.884-18.081,0-9.794,13.31-17.83,29.884-17.83C3467.208,5596,3480.769,5604.036,3480.769,5613.83Z" transform="translate(-3223.111 -5104.29)"/><path class="b" d="M3368.111,5581.929c15.57-9.041,28.629-10.547,39.427-4.269a14.786,14.786,0,0,1,5.023,4.269l-29.131,16.323-22.6-11.552A45.77,45.77,0,0,1,3368.111,5581.929Zm63.284-7.534a62.715,62.715,0,0,0-6.027-4.019,7.522,7.522,0,0,1-2.009-1,48.351,48.351,0,0,0,4.771-6.027c-.251-.5-25.364-21.346-25.364-21.346l-35.409,2.762-14.817,18.834,1.256,3.767c-2.763,1.256-5.525,2.762-8.287,4.269a59.158,59.158,0,0,0-8.79,5.776l-11.8-6.027v23.606c-.5,8.036,5.776,15.569,18.081,22.853,12.807,7.283,25.866,10.8,39.427,10.547s27.122-4.269,40.683-11.8c13.31-7.785,20.341-15.57,20.593-23.355v-25.866Z" transform="translate(-3151.135 -5063.851)"/><path class="d" d="M3359.1,5581.956,3378.688,5592l27.122-15.068a21.39,21.39,0,0,0-3.516-2.26c-10.045-6.027-22.853-4.771-37.92,4.018h0A48.565,48.565,0,0,0,3359.1,5581.956Zm19.839,13.562-25.364-13.059,1.758-1.256a48.821,48.821,0,0,1,7.534-5.273c16.072-9.041,29.884-10.548,40.934-4.019a21.3,21.3,0,0,1,5.525,4.521l1.256,1.507Zm-57.006-26.118v21.1c-.5,7.533,5.525,14.565,17.328,21.6,12.556,7.032,25.615,10.547,38.674,10.3,13.31-.251,26.62-4.269,39.678-11.8,13.059-7.282,19.839-14.816,20.09-22.1v-23.1l-11.05,6.278-.753-.5c-2.009-1.507-3.767-2.763-5.776-4.019-.5,0-.753-.251-1.256-.5l-2.26-1.256,1.256-1.507c2.009-2.511,3.265-4.018,3.767-4.771-3.265-2.763-15.319-12.808-23.857-19.839l-34.153,2.511-13.812,17.579,1.255,4.269-1.255.753a79.919,79.919,0,0,0-8.036,4.019,83.792,83.792,0,0,0-8.539,5.776l-.753.5Zm54.746,56a76.664,76.664,0,0,1-38.925-10.8c-12.808-7.534-19.337-15.57-18.835-24.108v-26.118l13.059,6.781q3.767-2.637,8.287-5.274a62.406,62.406,0,0,1,7.031-3.767l-1-3.265,15.821-20.09,36.665-2.762.5.5c25.615,21.095,25.615,21.346,25.866,22.1s.251,1-3.767,5.775a.246.246,0,0,0,.251.251,32.088,32.088,0,0,1,5.274,3.516l13.812-7.785v28.377c-.251,8.288-7.283,16.323-21.346,24.611q-20.718,11.677-41.436,12.054Z" transform="translate(-3146.645 -5059.357)"/><path class="b" d="M3368.171,5531.112c-15.319,8.79-17.83,16.324-7.031,22.6a27.525,27.525,0,0,0,17.83,3.767c6.278-.5,13.561-3.265,21.346-7.785,8.036-4.521,12.557-8.79,13.812-12.557,1-3.767-1-7.031-6.278-10.3C3397.051,5520.816,3383.742,5522.072,3368.171,5531.112Zm55,31.643c-13.561,7.785-26.871,11.8-40.432,12.054a72.51,72.51,0,0,1-39.427-10.8c-12.556-7.032-18.583-14.566-18.332-22.6.251-7.785,7.283-15.821,20.592-23.606,13.31-7.534,26.871-11.552,40.432-11.8a77.761,77.761,0,0,1,39.427,10.8c12.807,7.283,18.835,14.817,18.583,22.6C3443.51,5547.185,3436.479,5554.97,3423.169,5562.755Z" transform="translate(-3151.196 -5036.892)"/><path class="b" d="M3418.644,5573.1c-1.256,3.767-5.776,8.036-13.812,12.557-7.785,4.521-15.068,7.031-21.346,7.785a27.855,27.855,0,0,1-17.83-3.768c-10.8-6.278-8.287-13.812,7.032-22.6,15.57-9.041,28.88-10.3,39.678-4.27C3417.639,5566.073,3419.648,5569.338,3418.644,5573.1Zm28.377-4.771c-2.511-5.273-8.287-10.547-17.077-15.57-12.557-7.283-25.866-11.05-39.427-10.8s-27.122,4.27-40.432,11.8c-10.045,6.027-16.574,11.8-19.086,17.83v12.557c2.26,5.524,7.785,10.8,16.826,15.821,12.556,7.282,25.866,11.05,39.427,10.8s26.871-4.269,40.432-12.054c10.045-5.776,16.574-11.552,19.337-17.579Z" transform="translate(-3155.712 -5063.815)"/><path class="d" d="M3388.733,5520.055c-7.283,0-15.319,2.762-24.359,7.785h0c-10.548,6.278-12.808,10.548-12.808,13.059s2.009,4.771,5.776,7.032a26.361,26.361,0,0,0,16.826,3.516c6.278-.5,13.31-3.265,20.844-7.534,9.543-5.524,12.305-9.292,13.059-11.8.251-1,1.256-4.27-5.525-8.287A26.553,26.553,0,0,0,3388.733,5520.055Zm-17.579,34.656a30.673,30.673,0,0,1-15.319-4.269c-4.771-2.763-7.283-6.027-7.283-9.543,0-5.023,4.771-10.045,14.314-15.57h0c16.072-9.292,29.884-10.8,41.185-4.27q9.041,5.273,6.78,12.055c-1.255,4.018-5.776,8.538-14.314,13.31-8.036,4.771-15.319,7.534-22.1,8.036A13.273,13.273,0,0,1,3371.154,5554.711Zm11.3-51.732a1.9,1.9,0,0,0-1,.251c-13.31,0-26.62,4.018-39.678,11.552-12.808,7.282-19.588,14.816-19.839,22.1s5.525,14.565,17.579,21.346a72.251,72.251,0,0,0,38.423,10.548c13.31-.251,26.62-4.27,39.929-11.8h0c12.808-7.533,19.588-14.816,20.09-22.1.251-7.283-5.776-14.314-17.83-21.346A73.731,73.731,0,0,0,3382.455,5502.979Zm-5.525,68.81c-13.561,0-26.62-3.767-38.925-10.8-13.059-7.534-19.588-15.57-19.086-24.108.251-8.538,7.283-16.574,21.346-24.862,13.561-7.785,27.373-11.8,41.185-12.054s27.373,3.516,40.181,11.05c13.31,7.534,19.588,15.57,19.337,23.857-.5,8.539-7.534,16.575-21.6,24.611h0c-13.561,8.036-27.624,12.054-41.185,12.306Z" transform="translate(-3146.645 -5032.363)"/><path class="c" d="M3620.015,5661.2l-4.726,8.459-13.923,10.245-22.066,8.406-18.3,2.318v27.373c12.48-.5,24.721-4.521,37.2-12.054,12.721-7.534,21.573-15.631,21.813-23.417Z" transform="translate(-3327.952 -5152.967)"/><path class="d" d="M3446,5787.117c4.771,2.26,6.78,3.265,11.8,4.521v-27.625L3446,5761Z" transform="translate(-3241.832 -5227.854)"/><path class="c" d="M3450.7,5596.449c2.887-2.173,5.912-4.526,11.136-4.888V5574s-3.574,1.448-5.086,1.086l-3.3,2.172c-.55.362-3.024,2.173-4.812,3.621,0,0-5.224,7.6-5.637,7.966l.962,4.526,5.637,3.982A4.831,4.831,0,0,0,3450.7,5596.449Z" transform="translate(-3237.016 -5080.774)"/><path class="a" d="M4745.561,6264.341,4732,6244c.753.251,1.758.5,2.511.753l12.055,18.082C4746.314,6263.337,4745.812,6263.839,4745.561,6264.341Z" transform="translate(-4204.881 -5589.558)"/><path class="a" d="M4700.583,6265.126,4682,6237h2.009l18.082,27.373v.251A3.571,3.571,0,0,1,4700.583,6265.126Z" transform="translate(-4167.437 -5584.316)"/><path class="a" d="M4659.09,6271.387,4639,6241.251c.5,0,1.256-.251,1.758-.251l19.839,29.884A3.561,3.561,0,0,1,4659.09,6271.387Z" transform="translate(-4135.236 -5587.312)"/><path class="a" d="M4621.081,6281.875,4603,6254.753l.5-.251a1.305,1.305,0,0,1,1-.5l18.583,27.875Z" transform="translate(-4108.276 -5597.047)"/><path class="a" d="M4588.054,6297.337,4576,6279.507a5.24,5.24,0,0,1,1-1.507l13.561,20.341A7.51,7.51,0,0,1,4588.054,6297.337Z" transform="translate(-4088.057 -5615.02)"/><path class="b" d="M4619.715,6142.958c10.8,6.279,10.8,16.575,0,22.853-11.05,6.278-28.629,6.278-39.428,0-11.05-6.278-11.05-16.574,0-22.853C4591.086,6136.681,4608.665,6136.681,4619.715,6142.958Z" transform="translate(-4085.061 -5510.365)"/><path class="a" d="M4596.131,6135.7c-6.78,0-13.812,1.507-19.086,4.521-4.771,3.014-7.534,6.529-7.534,10.3s2.762,7.534,7.534,10.3c10.547,6.027,27.624,6.027,38.172,0,4.771-2.763,7.534-6.529,7.534-10.3s-2.762-7.282-7.534-10.3C4609.943,6137.205,4603.162,6135.7,4596.131,6135.7Zm0,32.145c-7.283,0-14.816-1.507-20.342-4.771-5.776-3.265-8.789-7.785-8.789-12.557s3.013-9.292,8.789-12.556c11.3-6.278,29.382-6.278,40.683,0,5.776,3.265,8.79,7.785,8.79,12.556s-3.014,9.292-8.79,12.557C4610.947,6166.336,4603.414,6167.843,4596.131,6167.843Z" transform="translate(-4081.317 -5506.621)"/><path class="b" d="M4619.715,6064.958c10.8,6.278,10.8,16.575,0,22.853-11.05,6.279-28.629,6.279-39.428,0-11.05-6.278-11.05-16.574,0-22.853C4591.086,6058.681,4608.665,6058.681,4619.715,6064.958Z" transform="translate(-4085.061 -5451.953)"/><path class="c" d="M4619.715,6106.958c10.8,6.278,10.8,16.575,0,22.853-11.05,6.279-28.629,6.279-39.428,0-11.05-6.278-11.05-16.574,0-22.853C4591.086,6100.681,4608.665,6100.681,4619.715,6106.958Z" transform="translate(-4085.061 -5483.406)"/><path class="a" d="M4596.131,6057.7c-6.78,0-13.812,1.507-19.086,4.521-4.771,3.014-7.534,6.529-7.534,10.3s2.762,7.534,7.534,10.3c10.547,6.026,27.624,6.026,38.172,0,4.771-2.763,7.534-6.529,7.534-10.3s-2.762-7.282-7.534-10.3C4609.943,6059.205,4603.162,6057.7,4596.131,6057.7Zm0,32.145c-7.283,0-14.816-1.507-20.342-4.771-5.776-3.265-8.789-7.785-8.789-12.557s3.013-9.292,8.789-12.556c11.3-6.278,29.382-6.278,40.683,0,5.776,3.265,8.79,7.785,8.79,12.556s-3.014,9.292-8.79,12.557C4610.947,6088.336,4603.414,6089.843,4596.131,6089.843Z" transform="translate(-4081.317 -5448.209)"/><path class="a" d="M3043.032,4612.547,3036,4602l3.516,2.009,4.771,7.283Z" transform="translate(-2934.795 -4359.912)"/><path class="a" d="M2974.83,4584.122,2957,4557a.877.877,0,0,1,.5.251l2.762,1.507,16.072,24.359Z" transform="translate(-2875.634 -4326.212)"/><path class="a" d="M2930.844,4589.145,2910,4557.753h0a12.241,12.241,0,0,1,1.758-.753l20.593,31.391Z" transform="translate(-2840.437 -4326.212)"/><path class="a" d="M2895.593,4609.145,2875,4578l1.507-1,20.844,31.391h-.251Z" transform="translate(-2814.227 -4341.19)"/><path class="a" d="M2855.323,4623.113,2839,4598.753l1.507-.753,18.081,27.122c-.251-.251-.5-.251-.753-.5Z" transform="translate(-2787.268 -4356.917)"/><path class="a" d="M2809.771,4626.79l-4.771-7.534,1.256-1.256,7.031,10.547Z" transform="translate(-2761.806 -4371.894)"/><path class="b" d="M2829.662,4467.6l-26.117-15.067c-3.265-1.758-2.762-5.022,1-7.031l24.108-14.063c3.767-2.26,9.292-2.512,12.305-.5l26.117,15.068c3.265,1.758,2.762,5.022-.753,7.031l-24.359,14.063C2838.451,4469.109,2832.927,4469.36,2829.662,4467.6Z" transform="translate(-2759.094 -4230.788)"/><path class="a" d="M2831.66,4427.193a11.333,11.333,0,0,0-6.278,1.758l-24.36,14.063c-1.255.753-2.26,1.758-2.26,2.763a2.155,2.155,0,0,0,1.507,1.758l26.118,15.068a11.777,11.777,0,0,0,10.8-.5l24.36-14.063c1.507-.754,2.26-1.758,2.26-2.763a2.349,2.349,0,0,0-1.255-1.758l-26.118-15.067A9.612,9.612,0,0,0,2831.66,4427.193Zm-.753,39.427a11.927,11.927,0,0,1-6.027-1.507l-26.117-15.067a4.916,4.916,0,0,1-2.762-4.269c0-2.009,1.256-4.018,3.767-5.274l24.359-14.063c4.018-2.26,10.045-2.511,13.561-.5l26.117,15.068a4.752,4.752,0,0,1,3.014,4.269c0,2.009-1.507,3.767-3.767,5.274l-24.359,14.063A16.309,16.309,0,0,1,2830.907,4466.621Z" transform="translate(-2755.066 -4227.043)"/><path class="b" d="M2829.662,4400.159l-26.117-15.067c-3.265-1.758-2.762-5.022,1-7.032L2828.657,4364c3.767-2.009,9.292-2.26,12.305-.5l26.117,15.068c3.265,1.758,2.762,5.022-.753,7.031l-24.359,14.063C2838.451,4401.917,2832.927,4402.168,2829.662,4400.159Z" transform="translate(-2759.094 -4180.421)"/><path class="c" d="M2829.662,4432.41l-26.117-15.067c-3.265-2.009-2.762-5.022,1-7.283L2828.657,4396c3.767-2.009,9.292-2.26,12.305-.5l26.117,15.068c3.265,2.009,2.762,5.023-.753,7.283l-24.359,14.063C2838.451,4433.917,2832.927,4434.168,2829.662,4432.41Z" transform="translate(-2759.094 -4204.385)"/><path class="a" d="M2831.66,4359.444a13.61,13.61,0,0,0-6.278,1.507l-24.36,14.063c-1.255.753-2.26,1.758-2.26,2.762s.753,1.507,1.507,2.009l26.118,15.068c2.762,1.507,7.785,1.256,10.8-.5l24.36-14.063q2.26-1.507,2.26-3.014a2.348,2.348,0,0,0-1.255-1.758l-26.118-15.067A9.555,9.555,0,0,0,2831.66,4359.444Zm-.753,39.176a11.926,11.926,0,0,1-6.027-1.507l-26.117-15.067a4.917,4.917,0,0,1-2.762-4.27q0-3.013,3.767-5.273l24.359-14.063c4.018-2.26,10.045-2.511,13.561-.5L2863.8,4373a5.03,5.03,0,0,1,3.014,4.27c0,2.009-1.507,4.018-3.767,5.274l-24.359,14.063A16.309,16.309,0,0,1,2830.907,4398.62Z" transform="translate(-2755.066 -4176.12)"/><path class="b" d="M2895.624,6339.083V6265H2868v75.59h0c.251,1.758,1.507,3.516,4.018,4.771,5.274,3.265,14.063,3.265,19.588,0C2894.62,6343.6,2895.875,6341.343,2895.624,6339.083Z" transform="translate(-2808.985 -5605.285)"/><path class="c" d="M2886,6334v62.782l11.8,2.762v-63.536A20.361,20.361,0,0,1,2886,6334Z" transform="translate(-2822.465 -5656.957)"/><path class="a" d="M2864.762,6336.343v.251c.251,1.506,1.507,2.762,3.265,4.018,5.023,2.763,13.31,2.763,18.333,0,2.511-1.507,3.767-3.265,3.265-5.022v-73.079h-24.862Zm12.557,9.041a24.178,24.178,0,0,1-10.547-2.512,8.547,8.547,0,0,1-4.269-4.771h-.251l-.251-1.255V6260h30.386v75.087c.251,3.013-1.256,5.776-4.771,7.785A22.276,22.276,0,0,1,2877.319,6345.384Z" transform="translate(-2804.491 -5601.54)"/><path class="b" d="M2891.231,6235.7c5.274,3.014,5.274,8.036,0,11.3-5.525,3.014-14.314,3.014-19.588,0-5.525-3.265-5.525-8.287,0-11.3C2876.917,6232.434,2885.707,6232.434,2891.231,6235.7Z" transform="translate(-2808.61 -5581.508)"/><path class="b" d="M2897.862,6264.521a11.3,11.3,0,0,0-2.511-2.261c-5.525-3.014-14.314-3.014-19.588,0a6.8,6.8,0,0,0-2.762,2.512v6.529a6.4,6.4,0,0,0,2.762,2.26c5.274,3.265,14.063,3.265,19.588,0a5.5,5.5,0,0,0,2.511-2.26Z" transform="translate(-2812.729 -5601.54)"/><path class="a" d="M2877.319,6230.949c-3.265,0-6.781.5-9.292,2.009-2.009,1.255-3.265,3.013-3.265,4.52,0,1.758,1.256,3.265,3.265,4.521,5.023,3.014,13.31,3.014,18.333,0,2.26-1.256,3.516-2.762,3.516-4.521,0-1.507-1.256-3.265-3.516-4.52A17.78,17.78,0,0,0,2877.319,6230.949Zm0,15.821a21.13,21.13,0,0,1-10.547-2.511c-3.014-1.758-4.771-4.018-4.771-6.781,0-2.511,1.758-5.022,4.771-6.78,5.776-3.265,15.068-3.265,20.844,0,3.014,1.758,4.771,4.27,4.771,6.78,0,2.763-1.758,5.023-4.771,6.781A19.573,19.573,0,0,1,2877.319,6246.771Z" transform="translate(-2804.491 -5577.764)"/><path class="b" d="M2742.624,6556.167V6519H2715v38.674h0c.251,1.758,1.758,3.516,4.018,4.771,5.525,3.265,14.314,3.265,19.588,0C2741.62,6560.688,2742.875,6558.427,2742.624,6556.167Z" transform="translate(-2694.407 -5795.498)"/><path class="c" d="M2733,6589v25.615l11.8,2.763v-26.62A23,23,0,0,1,2733,6589Z" transform="translate(-2707.887 -5847.919)"/><path class="a" d="M2712.511,6553.427v.251c.251,1.507,1.507,2.762,3.516,4.018,5.023,2.763,13.059,2.763,18.081,0,2.511-1.507,3.767-3.265,3.516-5.022v-35.911h-25.113Zm12.556,9.041a19.572,19.572,0,0,1-10.3-2.511,10.218,10.218,0,0,1-4.521-4.771H2710V6514h30.135v38.172c.5,3.014-1.255,5.775-4.52,7.785A21.131,21.131,0,0,1,2725.068,6562.468Z" transform="translate(-2690.663 -5791.754)"/><path class="b" d="M2738.793,6489.7c5.525,3.014,5.525,8.036,0,11.3-5.274,3.014-14.063,3.014-19.588,0-5.273-3.265-5.273-8.287,0-11.3C2724.73,6486.434,2733.52,6486.434,2738.793,6489.7Z" transform="translate(-2694.595 -5771.721)"/><path class="b" d="M2745.113,6518.521a13.325,13.325,0,0,0-2.762-2.26c-5.274-3.013-14.063-3.013-19.588,0a13.169,13.169,0,0,0-2.762,2.511v6.529a7.848,7.848,0,0,0,2.762,2.26c5.525,3.265,14.314,3.265,19.588,0a7.866,7.866,0,0,0,2.762-2.009Z" transform="translate(-2698.152 -5791.754)"/><path class="a" d="M2725.068,6484.95a20.817,20.817,0,0,0-9.041,2.009c-2.26,1.255-3.516,3.014-3.516,4.52,0,1.759,1.255,3.265,3.516,4.521,5.023,3.014,13.31,3.014,18.333,0,2.009-1.256,3.265-2.762,3.265-4.521,0-1.506-1.256-3.265-3.265-4.52A21.961,21.961,0,0,0,2725.068,6484.95Zm0,15.821a19.572,19.572,0,0,1-10.3-2.511c-3.014-1.758-4.771-4.018-4.771-6.781,0-2.511,1.758-5.022,4.771-6.78,5.776-3.265,15.067-3.265,20.844,0,3.013,1.758,4.771,4.27,4.771,6.78,0,2.763-1.758,5.023-4.771,6.781A21.131,21.131,0,0,1,2725.068,6500.771Z" transform="translate(-2690.663 -5767.977)"/><path class="c" d="M2641.287,6708.265a4.828,4.828,0,0,0-4.771,5.022,4.771,4.771,0,1,0,9.543,0A4.828,4.828,0,0,0,2641.287,6708.265Zm0,13.31a8.287,8.287,0,1,1,8.287-8.287A8.361,8.361,0,0,1,2641.287,6721.574Z" transform="translate(-2633 -5934.788)"/><path class="b" d="M4473.894,3978.943V3936H4442v44.45h0a8.778,8.778,0,0,0,4.771,5.776c6.278,3.516,16.323,3.516,22.6,0C4472.889,3984.217,4474.4,3981.454,4473.894,3978.943Z" transform="translate(-3987.708 -3861.164)"/><path class="c" d="M4463,4016v29.633l13.561,3.265V4018.26A24.707,24.707,0,0,1,4463,4016Z" transform="translate(-4003.434 -3921.073)"/><path class="a" d="M4439.014,3975.706h0c.251,1.758,1.758,3.516,4.018,4.771,5.776,3.264,15.319,3.264,21.095,0,2.762-1.758,4.269-3.767,3.767-5.776v-41.687h-28.88Zm14.565,10.3a23.218,23.218,0,0,1-12.055-3.013c-2.511-1.507-4.269-3.264-5.022-5.525h-.5V3930h34.907v44.2c.5,3.516-1.507,6.53-5.274,8.79A24.536,24.536,0,0,1,4453.579,3986Z" transform="translate(-3983.215 -3856.67)"/><path class="b" d="M4469.56,3902.137c6.278,3.516,6.278,9.543,0,13.059s-16.323,3.516-22.6,0-6.278-9.543,0-13.059S4463.282,3898.621,4469.56,3902.137Z" transform="translate(-3987.895 -3833.829)"/><path class="c" d="M4476.88,3935.086a10.055,10.055,0,0,0-3.014-2.511c-6.278-3.767-16.323-3.767-22.6,0a9.063,9.063,0,0,0-3.265,2.762v7.534a9.065,9.065,0,0,0,3.265,2.762c6.278,3.516,16.323,3.516,22.6,0a15.937,15.937,0,0,0,3.014-2.511Z" transform="translate(-3992.201 -3856.483)"/><path class="a" d="M4453.579,3896.013a23.348,23.348,0,0,0-10.547,2.511c-2.511,1.507-4.018,3.265-4.018,5.274s1.507,3.767,4.018,5.274c5.776,3.265,15.319,3.265,21.095,0,2.511-1.507,4.018-3.265,4.018-5.274s-1.507-3.767-4.018-5.274A24.184,24.184,0,0,0,4453.579,3896.013Zm0,18.584a23.866,23.866,0,0,1-12.055-3.014c-3.516-2.009-5.524-4.771-5.524-7.785s2.009-5.776,5.524-7.785c6.781-4.018,17.328-4.018,24.109,0,3.516,2.009,5.525,4.771,5.525,7.785s-2.009,5.776-5.525,7.785A23.865,23.865,0,0,1,4453.579,3914.6Z" transform="translate(-3983.215 -3828.962)"/><path class="b" d="M3497.92,6975.185v-39.929a1.186,1.186,0,0,0-1.256-1.256H3461a.92.92,0,0,0-1,1v40.18h0c.251,1,.251,1.256,1,1.759l14.817,8.538c1.758,1,4.771.753,6.781-.251l13.812-8.036A2.356,2.356,0,0,0,3497.92,6975.185Z" transform="translate(-3252.317 -6106.28)"/><path class="c" d="M3486.305,7005.031,3474,6998v28.88l15.57,7.785v-28.879A6.281,6.281,0,0,1,3486.305,7005.031Z" transform="translate(-3262.801 -6154.208)"/><path class="a" d="M3458.009,6932.009v40.181c0,.5,0,.753.5,1l14.817,8.287c1.507,1,4.018.753,5.776-.251l13.812-7.785c1-.753,1.255-1,1.255-1.255v-39.93c0-.251-.251-.251-.5-.251Zm17.83,52.235a8.18,8.18,0,0,1-3.516-1l-14.816-8.287a3.828,3.828,0,0,1-1.507-2.512v-40.432a1.848,1.848,0,0,1,2.009-2.009h35.66a2.25,2.25,0,0,1,2.26,2.26v39.93c0,1.507-1,2.26-2.009,3.014l-13.812,7.785A8.471,8.471,0,0,1,3475.839,6984.244Z" transform="translate(-3249.321 -6103.284)"/><path class="b" d="M3475.311,6911.131l-14.817-8.539c-1.758-1-1.507-2.763.5-4.018l13.812-7.785c2.009-1.256,5.022-1.507,6.781-.251l14.816,8.287c1.758,1,1.507,2.763-.5,4.019l-13.812,8.036C3480.083,6911.884,3477.069,6912.135,3475.311,6911.131Z" transform="translate(-3251.806 -6073.114)"/><path class="c" d="M3500.163,6928.941a.246.246,0,0,1-.251-.251l-14.817-8.538c-1.758-1-4.771-.753-6.781.5l-13.812,7.785c-.251.251-.5.251-.5.5v3.516l14.816,8.538c1.758,1,4.771.753,6.781-.251l13.812-8.036c.251-.251.5-.251.753-.5Z" transform="translate(-3255.312 -6095.445)"/><path class="a" d="M3476.09,6887.794a7.73,7.73,0,0,0-3.265.753l-13.812,8.036c-.753.5-1,1-1,1.255a1.307,1.307,0,0,0,.5,1l14.817,8.287c1.507,1,4.018.753,5.776-.251l13.812-7.785a2.953,2.953,0,0,0,1.255-1.507,1.132,1.132,0,0,0-.753-.753L3478.6,6888.3A3.765,3.765,0,0,0,3476.09,6887.794Zm-.251,21.848a8.02,8.02,0,0,1-3.516-.753l-14.816-8.538a2.762,2.762,0,0,1-1.507-2.512,3.544,3.544,0,0,1,2.009-3.014l13.812-8.036c2.26-1.256,5.776-1.507,7.785-.251l14.817,8.539a2.762,2.762,0,0,1,1.507,2.511c0,1.256-.753,2.26-2.009,3.265l-13.812,7.785A8.254,8.254,0,0,1,3475.839,6909.642Z" transform="translate(-3249.321 -6070.118)"/><path class="b" d="M3110.189,5324.705v-43.947a1.679,1.679,0,0,0-1.507-1.758H3069a1.149,1.149,0,0,0-1,1.256v44.7a2.562,2.562,0,0,0,1.256,2.01l16.323,9.292c2.009,1.255,5.273,1,7.534-.251l15.319-8.79C3109.436,5326.463,3110.189,5325.961,3110.189,5324.705Z" transform="translate(-2958.759 -4866.898)"/><path class="c" d="M3096.812,5358.785,3083,5351v32.145l17.328,8.287v-31.894A7.3,7.3,0,0,1,3096.812,5358.785Z" transform="translate(-2969.992 -4920.816)"/><path class="a" d="M3065.26,5277.26v44.45c.251.753.251,1,.753,1.255l16.323,9.292c1.507,1,4.52.754,6.529-.251l15.319-8.79c1-.753,1.256-1,1.256-1.506v-43.948c0-.5-.251-.5-.5-.5Zm19.839,58.011a10.532,10.532,0,0,1-4.018-1l-16.072-9.543c-1.256-.5-1.507-1.256-2.009-2.512V5277.26a2.251,2.251,0,0,1,2.26-2.26h39.678a2.787,2.787,0,0,1,2.762,2.762v43.948c0,1.758-1.507,2.762-2.511,3.516l-15.319,8.79A9.616,9.616,0,0,1,3085.1,5335.271Z" transform="translate(-2955.015 -4863.902)"/><path class="b" d="M3085.261,5254.392l-16.324-9.543c-2.009-1-1.758-3.014.5-4.27l15.068-8.79c2.511-1.256,5.776-1.507,7.785-.251l16.323,9.292c2.009,1.256,1.758,3.014-.5,4.521l-15.319,8.79A8.833,8.833,0,0,1,3085.261,5254.392Z" transform="translate(-2958.441 -4830.737)"/><path class="c" d="M3112.181,5274.081l-.251-.251-16.323-9.292c-2.009-1.256-5.273-1-7.785.251l-15.068,8.79c-.251.251-.5.251-.753.5v3.767l.251.251,16.323,9.292c2.009,1.256,5.274,1,7.534-.251l15.319-8.79c.251-.251.5-.251.753-.5Z" transform="translate(-2961.754 -4855.449)"/><path class="a" d="M3085.6,5228.236a6.54,6.54,0,0,0-3.767,1l-15.319,8.79c-1,.5-1.255,1-1.255,1.507s.5.753.753,1l16.323,9.292c1.507,1,4.52.753,6.529-.251l15.319-8.79a2.951,2.951,0,0,0,1.256-1.506,1.121,1.121,0,0,0-.753-1l-16.324-9.542A9.016,9.016,0,0,0,3085.6,5228.236Zm-.5,24.359a10.415,10.415,0,0,1-4.018-.753l-16.072-9.543a3.522,3.522,0,0,1-2.009-2.763,4.044,4.044,0,0,1,2.511-3.516l15.068-8.79c2.762-1.507,6.529-1.758,8.789-.251l16.323,9.292a3.543,3.543,0,0,1,2.009,3.014,4.021,4.021,0,0,1-2.511,3.265l-15.319,8.789A7.576,7.576,0,0,1,3085.1,5252.6Z" transform="translate(-2955.015 -4827.184)"/><g transform="translate(33.588)"><path class="f" d="M3253.031,5008.8,3246,4998l1.255-1,9.041,13.812Z" transform="translate(-3125.646 -4655.716)"/><path class="g" d="M4739.724,5632.675a7.728,7.728,0,0,0-3.265.753,7.9,7.9,0,0,0-4.019,4.52l-7.031,19.337a7.931,7.931,0,0,0,4.771,10.045l19.337,7.032a8.294,8.294,0,0,0,6.027-.5,6.787,6.787,0,0,0,4.018-4.269l7.032-19.588a7.686,7.686,0,0,0-.251-5.776,7.129,7.129,0,0,0-4.52-4.018l-19.337-7.032A10.684,10.684,0,0,0,4739.724,5632.675Zm12.556,45.454a9.769,9.769,0,0,1-3.767-.5l-19.588-7.032a11.292,11.292,0,0,1-6.78-14.314l7.031-19.588a10.917,10.917,0,0,1,5.776-6.278,10.2,10.2,0,0,1,8.538-.5l19.588,6.781a12.248,12.248,0,0,1,6.278,6.027,11.162,11.162,0,0,1,.5,8.538l-7.032,19.337a10.671,10.671,0,0,1-5.776,6.529A10.88,10.88,0,0,1,4752.28,5678.129Z" transform="translate(-4230.623 -5129.162)"/><path class="g" d="M4594.2,5745.1c-5.022,0-9.041-2.261-11.05-6.027-2.009-4.018-1.758-8.79,1.256-13.31,1.255-2.26,1.757-4.521.753-6.278-.753-1.507-2.512-2.26-4.771-2.511h-4.018c-4.771-.251-8.79-2.511-10.8-6.027-2.009-3.768-1.757-8.288.5-12.557l1.758-2.763c1-2.26,1.256-4.269.5-5.776a6,6,0,0,0-5.274-2.511H4561.8c-5.022-.251-9.041-2.511-11.049-6.278-2.26-3.767-1.758-8.538,1-13.059l5.776,3.767c-1.255,2.26-1.758,4.52-.753,6.027.753,1.507,2.763,2.511,5.273,2.511h1.256c5.023.251,9.041,2.26,11.05,6.027a12.542,12.542,0,0,1-.5,12.557l-1.507,2.763c-1.256,2.26-1.507,4.269-.753,5.776,1,1.507,2.762,2.26,5.022,2.511l4.018.251c5.022.251,8.79,2.512,10.8,6.278s1.507,8.539-1.256,13.059c-1.507,2.261-1.758,4.521-1,6.278,1,1.507,2.762,2.26,5.273,2.511Z" transform="translate(-4101.674 -5158.208)"/><path class="g" d="M4543.552,5922.516a8.163,8.163,0,0,0,0,16.324,8.163,8.163,0,0,0,0-16.324Zm0,19.84a11.678,11.678,0,0,1,0-23.355,11.678,11.678,0,0,1,0,23.355Z" transform="translate(-4088.695 -5346.175)"/><path class="g" d="M2782.383,4080.329a5.882,5.882,0,0,0-4.269,1.758l-6.027,6.027a6.069,6.069,0,0,0,0,8.789l6.027,6.027a6.069,6.069,0,0,0,8.789,0l6.027-6.027a6.069,6.069,0,0,0,0-8.789l-6.027-6.027A6.052,6.052,0,0,0,2782.383,4080.329Zm0,27.875a9.483,9.483,0,0,1-6.781-2.763l-6.027-6.027a9.549,9.549,0,0,1,0-13.561l6.027-6.278a9.548,9.548,0,0,1,13.561,0l6.278,6.278a9.549,9.549,0,0,1,0,13.561l-6.278,6.027A8.734,8.734,0,0,1,2782.383,4108.2Z" transform="translate(-2766.75 -3966.567)"/><path class="g" d="M2932.693,3922.432a7.73,7.73,0,0,0-3.265.754,8.338,8.338,0,0,0-4.269,4.52l-7.785,21.848a7.288,7.288,0,0,0,.5,6.027,7.592,7.592,0,0,0,4.521,4.269l21.6,7.785a9.086,9.086,0,0,0,6.278-.5,7.981,7.981,0,0,0,4.018-4.52l7.785-21.6a8.033,8.033,0,0,0-5.022-10.3l-21.6-7.785A9.024,9.024,0,0,0,2932.693,3922.432Zm14.063,50.728a14.228,14.228,0,0,1-4.52-.753l-21.6-7.785a11.891,11.891,0,0,1-7.534-6.781,12.736,12.736,0,0,1-.5-10.045l7.785-21.848a12.525,12.525,0,0,1,6.781-7.534,13.848,13.848,0,0,1,10.045-.5l21.6,7.785a13.224,13.224,0,0,1,8.036,17.077l-7.534,21.6a13.769,13.769,0,0,1-7.032,7.534A10.532,10.532,0,0,1,2946.756,3973.161Z" transform="translate(-2875.373 -3847.094)"/><path class="g" d="M2911.538,4207.516a5.1,5.1,0,0,0-5.022,5.273,5.023,5.023,0,0,0,10.045,0A5.1,5.1,0,0,0,2911.538,4207.516Zm0,13.812a8.665,8.665,0,0,1,0-17.328,8.665,8.665,0,0,1,0,17.328Z" transform="translate(-2868.784 -4061.861)"/><path class="g" d="M3003.654,6083.167a5.869,5.869,0,0,1-.5-6.027c1-2.009,3.014-3.014,5.776-3.014a2.771,2.771,0,0,0,2.511-1.255c.5-.753.251-1.507-.251-2.511l-1-1.758c-1-2.009-1.256-4.018-.251-5.776a5.821,5.821,0,0,1,5.274-3.013l1.507-.251a2.353,2.353,0,0,0,2.26-1.256c.5-.753.251-1.506-.251-2.511l-.5-.5a5.96,5.96,0,0,1,5.274-9.292v3.516a2.505,2.505,0,0,0-2.511,1.256c-.5.753-.251,1.506.251,2.511l.251.5c1.256,2.26,1.507,4.269.5,6.278-.753,1.758-2.762,2.762-5.022,3.013h-1.758c-1,.251-2.009.5-2.26,1.256a2.971,2.971,0,0,0,.251,2.512l1,1.758a5.809,5.809,0,0,1,.251,6.027,6.238,6.238,0,0,1-5.525,3.014,4.018,4.018,0,0,0-2.762,1,3.639,3.639,0,0,0,.251,2.763Z" transform="translate(-2943.32 -5441.282)"/><path class="g" d="M3051.552,6227.516a8.163,8.163,0,1,0,8.036,8.036A8.092,8.092,0,0,0,3051.552,6227.516Zm0,19.839a11.678,11.678,0,0,1,0-23.355,11.678,11.678,0,0,1,0,23.355Z" transform="translate(-2971.379 -5574.581)"/><path class="g" d="M3156.287,6294.516a4.992,4.992,0,0,0-4.771,5.022,4.94,4.94,0,0,0,4.771,4.771,4.9,4.9,0,1,0,0-9.794Zm0,13.31a8.414,8.414,0,0,1,0-16.825,8.414,8.414,0,0,1,0,16.825Z" transform="translate(-3052.257 -5624.755)"/><path class="g" d="M4563.1,3680.692c-1.506-2.26-1.758-4.771-.5-6.781,1-2.009,3.516-3.265,6.278-3.265a4.052,4.052,0,0,0,3.265-1.507,3.114,3.114,0,0,0-.251-3.264l-1.256-2.009a6.562,6.562,0,0,1,5.525-10.045h1.757a3.534,3.534,0,0,0,3.014-1.507,3.158,3.158,0,0,0-.5-3.264l-.251-.753c-1.506-2.26-1.758-4.771-.5-6.781,1-2.009,3.265-3.265,6.278-3.516v3.516a3.6,3.6,0,0,0-3.264,1.758,3.123,3.123,0,0,0,.251,3.265l.5.5a7.3,7.3,0,0,1,.5,6.781,6.738,6.738,0,0,1-5.776,3.516h-1.758a4.293,4.293,0,0,0-3.014,1.507c-.5,1-.251,2.009.251,3.265l1.256,2.009c1.256,2.26,1.507,4.771.251,6.529-1,2.26-3.516,3.265-6.278,3.516-1.507,0-2.762.5-3.265,1.507-.5.753-.251,2.009.251,3.265Z" transform="translate(-4111.01 -3638)"/><path class="g" d="M4619.059,3848.265a9.973,9.973,0,0,0-9.794,9.794,9.756,9.756,0,0,0,9.794,9.543,9.539,9.539,0,0,0,9.543-9.543A9.756,9.756,0,0,0,4619.059,3848.265Zm0,22.853a13.059,13.059,0,1,1,13.059-13.059A12.97,12.97,0,0,1,4619.059,3871.117Z" transform="translate(-4144.111 -3793.016)"/><path class="g" d="M3627.054,6823.516a8.665,8.665,0,1,0,8.79,8.79A8.735,8.735,0,0,0,3627.054,6823.516Zm0,20.844a12.18,12.18,0,0,1,0-24.359,12.18,12.18,0,1,1,0,24.359Z" transform="translate(-3401.98 -6020.908)"/><path class="g" d="M3056.041,5144.516a5.652,5.652,0,1,0,0,11.3,5.652,5.652,0,1,0,0-11.3Zm0,14.816a9.167,9.167,0,0,1,0-18.332,9.167,9.167,0,1,1,0,18.332Z" transform="translate(-2976.621 -4763.553)"/><path class="g" d="M4888.56,4413.345a6.953,6.953,0,0,0-3.265.753l-15.821,8.79a6.933,6.933,0,0,0-2.511,9.041l8.79,15.821a6.805,6.805,0,0,0,9.041,2.511l15.57-8.79a6.429,6.429,0,0,0,3.265-4.018,6.9,6.9,0,0,0-.5-5.023l-8.79-15.821A6.96,6.96,0,0,0,4888.56,4413.345Zm-7.032,41.185a10.148,10.148,0,0,1-8.789-5.273l-8.79-15.57a10.677,10.677,0,0,1-1-7.785,10.413,10.413,0,0,1,4.771-6.027l15.821-8.79a10.225,10.225,0,0,1,13.812,3.767l8.79,15.821a10.332,10.332,0,0,1,.753,7.785,10.2,10.2,0,0,1-4.771,6.027l-15.57,8.789A11.423,11.423,0,0,1,4881.527,4454.53Z" transform="translate(-4336.265 -4215.958)"/><path class="g" d="M5074.653,4547.916a5.869,5.869,0,0,1-.5-6.027,6.677,6.677,0,0,1,5.776-3.014,2.506,2.506,0,0,0,2.511-1.255c.5-.5.5-1.507-.251-2.511l-1-1.507a6.443,6.443,0,0,1-.251-6.027q1.507-2.637,5.273-3.014h1.507a3.829,3.829,0,0,0,2.26-1.255,2.787,2.787,0,0,0-.251-2.762l-.251-.5a5.87,5.87,0,0,1-.5-6.027c1-2.009,3.014-3.014,5.525-3.014l.251,3.265c-1.507.251-2.26.5-2.763,1.256a3.64,3.64,0,0,0,.251,2.763l.5.5a6.513,6.513,0,0,1,.5,6.027,6.121,6.121,0,0,1-5.273,3.014l-1.507.251a2.772,2.772,0,0,0-2.511,1.255,3.087,3.087,0,0,0,.251,2.512l1,1.507a5.811,5.811,0,0,1,.251,6.027c-1,2.009-3.014,3.013-5.524,3.013a3.241,3.241,0,0,0-2.763,1.255,2.478,2.478,0,0,0,.5,2.512Z" transform="translate(-4494.232 -4291.765)"/><path class="g" d="M5094.287,4331.516a4.768,4.768,0,0,0-4.771,4.771,4.778,4.778,0,1,0,9.543,0A4.768,4.768,0,0,0,5094.287,4331.516Zm0,13.059a8.287,8.287,0,1,1,8.287-8.287A8.361,8.361,0,0,1,5094.287,4344.574Z" transform="translate(-4503.57 -4154.721)"/></g><path class="b" d="M4943.705,4800.473v-47.715a1.716,1.716,0,0,0-1.758-1.758h-42.691a1.345,1.345,0,0,0-1.256,1.256v48.468c.251,1,.251,1.507,1.507,2.009l17.579,10.3a9.713,9.713,0,0,0,8.288-.5l16.323-9.543A2.643,2.643,0,0,0,4943.705,4800.473Z" transform="translate(-4329.193 -4471.494)"/><path class="c" d="M4929.816,4836.538,4915,4828v34.907l18.583,9.04v-34.4A6.049,6.049,0,0,1,4929.816,4836.538Z" transform="translate(-4341.924 -4529.157)"/><path class="a" d="M4895.511,4749.26v48.216c.251,1,.251,1,.753,1.256l17.579,10.045a7.746,7.746,0,0,0,7.031-.251l16.575-9.543c1.255-.753,1.255-1,1.255-1.507v-47.714a.54.54,0,0,0-.5-.5Zm21.346,62.782a11.839,11.839,0,0,1-4.269-1l-17.579-10.3a4.464,4.464,0,0,1-2.009-2.762V4749.26a2.319,2.319,0,0,1,2.511-2.26H4938.2a2.851,2.851,0,0,1,3.014,2.763v47.714c0,2.009-1.507,3.014-2.763,3.767l-16.323,9.292A9.88,9.88,0,0,1,4916.857,4812.042Z" transform="translate(-4325.449 -4468.498)"/><path class="b" d="M4916.959,4724.4l-17.579-10.3c-2.26-1.256-2.009-3.265.5-4.771l16.323-9.543c2.512-1.256,6.278-1.507,8.288-.251l17.579,10.045c2.26,1.256,2.009,3.516-.5,5.022l-16.323,9.292C4922.734,4725.4,4918.968,4725.655,4916.959,4724.4Z" transform="translate(-4329.066 -4432.337)"/><path class="c" d="M4946.194,4745.834l-.251-.251-17.579-10.045c-2.009-1.256-5.776-1-8.288.251l-16.324,9.543c-.251.251-.5.5-.753.5v4.019c0,.251,0,.251.251.251l17.579,10.3a9.714,9.714,0,0,0,8.287-.5l16.323-9.543c.251,0,.5-.251.754-.5Z" transform="translate(-4332.938 -4459.296)"/><path class="a" d="M4917.359,4696.236a6.954,6.954,0,0,0-4.019,1.256l-16.574,9.292c-1,.753-1.255,1.256-1.255,1.758s.5.753.753,1l17.579,10.3c1.758,1,5.022.753,7.031-.5l16.575-9.542a2.024,2.024,0,0,0,1.255-1.507,1.121,1.121,0,0,0-.753-1l-17.579-10.3A5.354,5.354,0,0,0,4917.359,4696.236Zm-.5,26.62a11.819,11.819,0,0,1-4.269-1l-17.579-10.3a3.542,3.542,0,0,1-2.009-3.014c0-1.507,1-2.763,2.762-3.767l16.324-9.543c2.762-1.507,7.031-1.758,9.542-.251l17.579,10.045a3.918,3.918,0,0,1,2.009,3.265,4.865,4.865,0,0,1-2.763,3.767l-16.323,9.292A9.88,9.88,0,0,1,4916.857,4722.856Z" transform="translate(-4325.449 -4428.785)"/><path class="b" d="M5062.148,4947.911v-34.655a1.186,1.186,0,0,0-1.255-1.256h-31.14a1.131,1.131,0,0,0-.753.753v35.41c.251.753.251,1,1,1.507l12.808,7.283a7.264,7.264,0,0,0,6.027-.251l12.054-6.781C5061.646,4949.167,5062.148,4948.665,5062.148,4947.911Z" transform="translate(-4427.295 -4592.062)"/><path class="c" d="M5051.8,4974.278,5041,4968v25.364l13.561,6.529V4974.78A9.029,9.029,0,0,1,5051.8,4974.278Z" transform="translate(-4436.282 -4633.999)"/><path class="a" d="M5026.758,4909.758v35.158a2.63,2.63,0,0,0,.754,1l12.808,7.283c1.255.753,3.516.5,5.022-.251l12.054-6.78c1-.754,1-1,1-1.256V4910.26a.54.54,0,0,0-.5-.5Zm15.57,45.706a6.691,6.691,0,0,1-3.014-.753l-12.808-7.534c-1-.5-1-1-1.256-1.758l-.251-.251v-35.409a2.133,2.133,0,0,1,1.758-1.758h31.14a2.251,2.251,0,0,1,2.26,2.26v34.656a2.982,2.982,0,0,1-2.009,2.511l-11.8,7.032A10.528,10.528,0,0,1,5042.328,4955.463Z" transform="translate(-4424.3 -4589.066)"/><path class="b" d="M5042.857,4892.48l-12.808-7.534c-1.507-.754-1.256-2.26.5-3.516l11.8-6.78a7.267,7.267,0,0,1,6.027-.251l12.808,7.283c1.507,1,1.507,2.511-.251,3.516l-12.055,7.032A7.264,7.264,0,0,1,5042.857,4892.48Z" transform="translate(-4427.34 -4563.501)"/><path class="c" d="M5063.643,4907.933h-.251l-12.808-7.534a7.264,7.264,0,0,0-6.027.251l-11.8,7.031c-.251,0-.5.252-.753.252v3.013h.251l12.808,7.534a7.262,7.262,0,0,0,6.027-.251l12.054-7.032a.878.878,0,0,1,.5-.251Z" transform="translate(-4429.542 -4582.972)"/><path class="a" d="M5042.83,4871.844a5.97,5.97,0,0,0-3.014.753l-12.054,6.78c-.754.5-1,1-1,1.256a.8.8,0,0,0,.754.754l12.808,7.533c1.255.754,3.516.5,5.022-.251l12.054-7.031c.753-.251,1-.753,1-1,0-.5-.5-.753-.753-1l-12.556-7.283A7.343,7.343,0,0,0,5042.83,4871.844Zm-.5,19.337a6.691,6.691,0,0,1-3.014-.753l-12.808-7.534a2.884,2.884,0,0,1-1.507-2.26,3.519,3.519,0,0,1,2.009-2.762l12.055-6.781a7.237,7.237,0,0,1,6.78-.251l12.808,7.283a3.056,3.056,0,0,1,1.507,2.511,2.889,2.889,0,0,1-2.009,2.512l-11.8,7.031A10.519,10.519,0,0,1,5042.328,4891.181Z" transform="translate(-4424.3 -4560.695)"/></g></g></svg>