<svg xmlns="http://www.w3.org/2000/svg" xmlns:xlink="http://www.w3.org/1999/xlink" width="1183.313" height="716.868" viewBox="0 0 1183.313 716.868"><defs><style>.a,.k{fill:#6c63ff;}.a,.c,.d,.h{opacity:0.1;}.b{fill:#a8a8a8;}.c,.l{fill:#fff;}.e{fill:#df5f5f;}.f{fill:url(#a);}.g{fill:#464353;}.i{opacity:0.06;}.j{fill:#fbbebe;}.m{fill:#fed253;}.n{fill:url(#b);}.o{fill:#d6d8e1;}.p{fill:#f86d70;}.q{opacity:0.2;}</style><linearGradient id="a" y1="0.5" x2="1" y2="0.5" gradientUnits="objectBoundingBox"><stop offset="0" stop-color="gray" stop-opacity="0.251"/><stop offset="0.54" stop-color="gray" stop-opacity="0.122"/><stop offset="1" stop-color="gray" stop-opacity="0.102"/></linearGradient><linearGradient id="b" x1="12.106" y1="0.5" x2="13.106" y2="0.5" xlink:href="#a"/></defs><ellipse class="a" cx="233.988" cy="32.584" rx="233.988" ry="32.584" transform="translate(0 496.471)"/><ellipse class="a" cx="91.01" cy="16.891" rx="91.01" ry="16.891" transform="translate(291.538 683.087)"/><ellipse class="a" cx="91.01" cy="16.891" rx="91.01" ry="16.891" transform="translate(1001.292 618.103)"/><ellipse class="a" cx="147.997" cy="22.525" rx="147.997" ry="22.525" transform="translate(591.223 592.657)"/><path class="b" d="M133.427,602.782c-14.116,24.671-12.407,54.249,4.476,77.475,2.721,3.667,5.224,6.306,7.224,7,9.591,3.386,28.8,11.709,28.8,11.709L220.18,682.64s7.509-35.688,14.611-66.328h0c4.843-20.9,9.523-39.44,11.441-42.691,4.789-8.005,0-95.16,0-95.16s-46.253-2.787-58.973,29.247l-5.564,9.777Z" transform="translate(-69.448 -174.913)"/><path class="c" d="M180.252,612.411c28.119,28.954,39.982,3.911,39.982,3.911h0c4.843-20.9,9.523-39.44,11.441-42.691,4.789-8.005,0-95.16,0-95.16s-46.253-2.786-58.973,29.247l-5.564,9.778C163.574,543.125,160.05,591.573,180.252,612.411Z" transform="translate(-54.864 -174.91)"/><path class="b" d="M180.59,711.079l163.247-16.94,29.126-172.182-22.025-44.72a181.012,181.012,0,0,0-38.091-51.625c-11.087-10.5-24.487-20.594-38.581-25.666q-2.889-1.046-5.89-1.809a16.657,16.657,0,0,0-13.6,2.163c-20.134,12.821-27.33,67.331-29.657,93.571A264.836,264.836,0,0,1,220.259,526Z" transform="translate(-49.026 -192.878)"/><path class="c" d="M269.641,520.1l-34.01,75.165c17.821-11.709,44.226-75.47,44.226-75.47l23.657,72.7L284.66,515.873a215.576,215.576,0,0,0,2.394-50.281c-1.5-19.237-21.589-50.11-32.5-65.656q-2.889-1.046-5.891-1.809a16.658,16.658,0,0,0-13.6,2.163c8.571,15.461,30,54.119,36.527,65.607C279.871,480.369,269.641,520.1,269.641,520.1Z" transform="translate(-29.395 -192.88)"/><path class="b" d="M280.89,695.432h88.575a28.4,28.4,0,0,0,19.478-7.505,22.783,22.783,0,0,0,7.362-17.855c-1.959-34.124-6.924-94.964-18.733-133.585-6.38-20.838-13.794-31.777-20.6-37.167a21.124,21.124,0,0,0-11.713-4.95,16.758,16.758,0,0,0-9.523,2.078c-16.447,14.165-35.656,88.706-35.656,88.706Z" transform="translate(23.038 -171.376)"/><path class="c" d="M358.72,610.419c3.646,9.081,5.088,19.555,0,29.76l-19.739,8.763s-53.055-20.2-46.607-61.61c0,0,1.741-8.555,20.011-7.9C333.4,580.349,351.715,592.594,358.72,610.419Z" transform="translate(27.689 -152.472)"/><path class="c" d="M332.128,520.466c-.612-14.52,8.162-19.555,15.413-21.156a21.125,21.125,0,0,0-11.713-4.95,27.728,27.728,0,0,0-10.217,14.666l-18.5,81.019S333.162,544.8,332.128,520.466Z" transform="translate(35.029 -171.367)"/><path class="b" d="M300.9,568.14l43.859,53.9,7.6,44.488-28.187,12.5L283.536,687.1a43.375,43.375,0,0,1-11.931.7L160.72,679.029l15.087-31.423,52.1-65.717Z" transform="translate(-56.187 -154.973)"/><path class="c" d="M279.935,553s29.929,1.846,18.692,48.044-126.857,49.9-126.857,49.9,24.569-39.11,62.361-67.135c4.244-3.141,8.339-6.417,12.244-9.912C255.067,566.094,271.691,552.368,279.935,553Z" transform="translate(-52.205 -158.341)"/><path class="d" d="M271.07,581.5s40.553,33.158,36.731,84.184" transform="translate(15.75 -152.005)"/><path class="d" d="M333.758,496.06S291.2,546.9,286.43,625.135" transform="translate(24.19 -170.989)"/><path class="d" d="M222.027,478.43s20.6,84.025-30.827,147.359" transform="translate(-45.202 -174.906)"/><path class="d" d="M492.9,770.767H714.836a12.766,12.766,0,0,0,10.624-5.466,10.193,10.193,0,0,0,.259-11L614.806,569.167a13.123,13.123,0,0,0-21.875,0L481.963,754.3a10.193,10.193,0,0,0,.273,11.017A12.775,12.775,0,0,0,492.9,770.767Zm125.088-33.83H589.747V711.577h28.242Zm0-42.276H589.747V643.929h28.242Z" transform="translate(302.729 -248.097)"/><g transform="translate(783.209 315.731)"><path class="e" d="M492.9,775.768H714.836a12.766,12.766,0,0,0,10.624-5.466,10.193,10.193,0,0,0,.259-11L614.806,574.167a13.123,13.123,0,0,0-21.875,0L481.963,759.3a10.194,10.194,0,0,0,.274,11.017,12.776,12.776,0,0,0,10.664,5.445Zm125.088-33.83H589.747v-25.36h28.242Zm0-42.276H589.747V648.929h28.242Z" transform="translate(-480.479 -568.296)"/></g><path class="f" d="M512.828,751.208a16.019,16.019,0,0,0-3.142-1.369c-3.646-1.222-7.537-1.54-11.183-2.713a16.489,16.489,0,0,1-5.618-2.982c-.272-.245-.531-.489-.775-.746,1.36-.77,2.6-1.54,3.945-2.261a44.707,44.707,0,0,0-16.406-14.666c2.19-2.9,7.128-2.664,10.012-5a8.284,8.284,0,0,0,2.721-4.8c1.075-4.8-.259-9.777-1.592-14.507-2.585-9.252-5.2-18.565-9.387-27.316a101.78,101.78,0,0,1-5.088-11.073c-3.523-10.535-1.061-22-3.728-32.767-.857-3.459-2.245-7.028-1.279-10.45,1.483-5.3,8.081-8.445,9.523-13.75,5.224-18.883,6.163-38.475,9.128-57.748a67,67,0,0,0,1.1-11.085c0-3.9-.775-7.761-1.088-11.647-.843-10.914,1.592-21.816,2.639-32.718a32.352,32.352,0,0,1,4.938,10.939,39.719,39.719,0,0,1,.286,10.853,46,46,0,0,1-.857,7.223c-.667,2.836-1.837,5.549-2.612,8.384a23.479,23.479,0,0,0,1.293,16.817c1.85,3.667,5.918,7.064,10.148,5.964,2.925-.758,4.693-3.373,6-5.854,4.081-7.773,6.353-16.781,3.605-25.043-1.809-5.5-5.782-10.474-6.149-16.218a37.754,37.754,0,0,1,.6-6.856c1.7-13.273-1.973-26.607-2.789-39.953-.218-3.532.136-7.92-.748-11.672-.109-.452-.231-.9-.381-1.332a3.359,3.359,0,0,1,.979.4,7.243,7.243,0,0,0-.19-6.832,16.875,16.875,0,0,1-1.279-2.151c-.517-1.222-.422-2.64-1.061-3.813a16.333,16.333,0,0,0-1.361-1.772c-1.755-2.285-1.85-5.243-1.891-8.018q-.313-21.706-1.36-43.363c-.367-7.333-.83-14.837-3.687-21.718a33.159,33.159,0,0,0-12.788-15.241,30.5,30.5,0,0,0-2.87-1.613,8.19,8.19,0,0,0,.816-3.3,7.1,7.1,0,0,0,0-1.076l-.082-.611h0a24.028,24.028,0,0,0-2.721-7.333,19.072,19.072,0,0,1-2.6-8.018,11.224,11.224,0,0,1,.1-1.516h0c.463-3.52,2.5-6.82,3.224-10.34a15.986,15.986,0,0,0,.3-3.312v-1.161A30.975,30.975,0,0,0,475.1,293.73c-.68-1.222-1.36-2.444-2.122-3.667-.354-2.286-.748-4.571-1.143-6.844-.218-1.32-.449-2.64-.762-3.948q-.231-.978-.531-1.907c2.109-1.784.884-4.4-.462-6.82-2.6-4.6-2.054-10.083-3.156-15.143a42.776,42.776,0,0,0-4-10.169,22.373,22.373,0,0,0-4.34-6.4,26.7,26.7,0,0,0-5.618-3.667,18.925,18.925,0,0,0-5.578-2.261c-1.238-.22-2.5-.208-3.728-.464a12.7,12.7,0,0,1-2.285-.746,16.7,16.7,0,0,0-4.884-1.6,11.963,11.963,0,0,0-4.707.807,18.884,18.884,0,0,1-5.061,1.222H424.81a4.643,4.643,0,0,0-2.6.562,9.354,9.354,0,0,0-1.116,1.027,15.236,15.236,0,0,1-3.279,2.017c-9.772,5.192-15.794,14.611-15.862,24.81a11.092,11.092,0,0,1-.395,4.021c-.395,1.027-1.17,1.919-1.5,2.97a7.507,7.507,0,0,0-.15,2.787c.109,1.43.272,2.848.449,4.278h0a8.6,8.6,0,0,0-1.986,3.948h0a4.877,4.877,0,0,0-.122.758v.1h0c-.15,2.554,1.252,4.889,2.068,7.333a23.524,23.524,0,0,1-.408,14.385c-.993,3.214-2.408,6.539-2.721,9.777h0v.22A10.7,10.7,0,0,0,397.82,316c.449,1.112,1.116,2.151,1.524,3.275,1.442,3.984-.653,8.164-3.428,11.66h0c-.435.55-.884,1.076-1.36,1.589h.068l-.068.061,2.83,1.8c-.83.391-1.66.819-2.5,1.222a27.618,27.618,0,0,0-9.223,3.068,38.072,38.072,0,0,0-7.482,4.473,28.845,28.845,0,0,0-5.9,7.333,88.292,88.292,0,0,0-5.006,9.484,27.4,27.4,0,0,0-2.558,8.225c-1.17,2.237-2.136,4.644-3.211,6.808-.544,1.112-1.075,2.224-1.605,3.337L313.068,275.324l-7.265,2.713.571,1.222-1.51.574,2.054,4.5c-.3.183-.6.367-.884.562l-.381.269-.762.538-.381.281-.775.587-.286.22-.966.794h0c-1.034.843-2.027,1.736-2.993,2.628L297,292.52l-.476.452-.83.758-.463.428-1.183,1.063-.082.073-.735.636-.463.391c-.19.171-.395.33-.6.489l-.571.477-.925.709-.272.22-1.265.9a36.177,36.177,0,0,1-5.442,3.141c-7.441,3.459-15.318,6.355-22.583,10.059a65.583,65.583,0,0,0-11.182,7.04c-4.8,3.826-8.87,8.555-14.434,11.33l-.612.293c-9.849,4.547-21.453,1.821-32.649,1.626-1.673,0-3.319,0-4.952.1-9.087.635-17.4,3.948-25.439,7.981-5.659,2.848-11.182,6.05-16.733,8.946-3.51,1.821-7.033,3.8-10.57,5.83-8.979,5.121-18.066,10.5-27.466,14.373-8.734,3.593-17.685,5.879-27.208,5.439h-.122a25.208,25.208,0,0,1-2.721-.208c-.884,6.417,4.829,11.586,8.639,17.233a16.367,16.367,0,0,1,3.224,8.164,13.213,13.213,0,0,1-.272,3.275c-.762,3.96-2.8,7.846-2.245,11.831a12.968,12.968,0,0,0,2.9,6.429c2.421,3.1,5.782,5.866,8.067,9.105,3.455,4.889,4.353,10.841,5.7,16.6a32.645,32.645,0,0,0,4.476,11.5c2.938,4.253,7.428,7.333,11.645,10.6.775.6,1.537,1.222,2.272,1.833.544.44,1.075.9,1.578,1.381,4.938,4.534,8.611,11.525,5.632,17.2-.1.2-.2.367-.313.55a5.592,5.592,0,0,0,.748.4c3.8,1.662,8.557-1,11.672-3.825,1.537-1.381,2.993-2.848,4.408-4.339,3.8-3.789,7.278-7.9,10.883-11.831.979-1.063,1.959-2.1,2.966-3.129a49.707,49.707,0,0,1,13.441-9.777,52.7,52.7,0,0,1,8.244-3.007c4.217-1.222,8.57-2.126,12.8-3.324a112,112,0,0,0,16.855-6.355,265.656,265.656,0,0,0,27.208-15.155l1.36-.794a46.164,46.164,0,0,0,8.094-5.805c.435-.428.857-.868,1.252-1.32,2.122-2.444,3.5-5.341,5.442-7.883a27.135,27.135,0,0,1,7.632-6.612c8.394-5.072,19.535-7,29.507-9.777h.109a117.958,117.958,0,0,0,46.485-24.8l7.455,16.4q-1.156,2.909-2.19,5.879c-1.66,4.889-3.02,9.924-6.271,14.055a10.257,10.257,0,0,0-2.367,3.776,11.094,11.094,0,0,1-.558,3.031c-.463.831-1.428,1.381-1.823,2.237-.571,1.222.177,2.8-.585,3.948a6.555,6.555,0,0,1-1.292,1.222c-1.945,1.552-2.462,4-2.462,6.221a19.651,19.651,0,0,1-.612,6.747,18.7,18.7,0,0,1,1.755-.819,6.616,6.616,0,0,0-.15,1.222,12.313,12.313,0,0,0,.476,3.434,26.15,26.15,0,0,0,3.972,7.138,51,51,0,0,0,4.258,5.5,54.276,54.276,0,0,0,9.006,7.235l13.713,9.509-1.36,5.145c-2.993,10.78-6.013,21.694-6.163,32.816a127.271,127.271,0,0,0,1.1,15.754l1.184,10.731c.952,8.641,1.9,17.282,2.952,25.923.667,5.463,1.36,11,3.51,16.157,3.238,7.834-.34,16.683,1.034,24.969,1.088,6.49,3.238,13.2,1.075,19.469-.871,2.444-2.394,4.791-3.51,7.211-2.789,6.013-3.075,12.7-3.306,19.213a73.437,73.437,0,0,0,.694,17.111c1.17,5.842,3.755,11.574,3.251,17.5-.707,8.421-7.564,15.62-8.394,24.04-.667,6.71,2.585,13.2,6.081,19.152,2.571,4.388-1.02,10.059-2.381,14.886-2.721,9.472,1.8,19.372,7.305,27.768a1.443,1.443,0,0,0,.694.66c.626.208,1.211-.354,1.619-.831a10.358,10.358,0,0,1,.816-.868c0,.379.082.758.109,1.124,0,.794.068,1.589.068,2.444a22.373,22.373,0,0,0,1.85,9.044,15.134,15.134,0,0,0,.762,1.638,7.478,7.478,0,0,0,1.36,1.968,8.81,8.81,0,0,0,5.442,2.053c4.517.44,9.06-.4,13.6-.758,4.789-.367,9.591-.208,14.393-.305a2.282,2.282,0,0,0,1.075-.208,1.637,1.637,0,0,0,.612-.88,8.823,8.823,0,0,0,.231-4.815,31.287,31.287,0,0,0-1.02-3.826c-.639-2.017-1.224-4.046-1.782-6.111-.109-.379-.2-.758-.3-1.137l.218.086q4.394-8.873,8.8-17.746c1.483-2.994,2.993-6.233,2.258-9.447-.531-2.3-2.163-4.241-3.319-6.343-2.721-4.962-2.83-10.755-2.87-16.3l-.163-31.435c6.8-7.773,11.006-17.025,13.6-26.68a77.811,77.811,0,0,1,.8,41.554,35.209,35.209,0,0,0-1.292,6.331c-.531,8.714,7.02,16.1,9.033,24.627a5,5,0,0,1,.15,2,7.14,7.14,0,0,1-1.115,2.322c-3.619,5.952-3.224,13.139-2.721,19.909l1.592.232a4.041,4.041,0,0,0,1.687,1.491h0a8.871,8.871,0,0,0,2.109.782,57.426,57.426,0,0,0,7.931,1.088c3.836.342,7.686.685,11.536.9,1.524.086,3.047.159,4.571.2a35.045,35.045,0,0,1,13.2,2.176c9.917,2.982,21.018,4.681,30.623.965a13.876,13.876,0,0,0,5.591-3.557,5.526,5.526,0,0,0,1.666-4.955,5.973,5.973,0,0,0-3.312-4.236ZM381.251,402.8c1.442,2.579,2.884,5.145,4.081,7.822,2.353,5.182,3.782,11,2.285,16.4-.435,1.589-3.279,2.811-3.265,4.449a3.561,3.561,0,0,0-.218.379L375.251,412.3a68.236,68.236,0,0,1,6-9.5ZM371.5,444.353a33.173,33.173,0,0,1-4.816-7.468c-.163-.33-.34-.648-.5-.978a3.259,3.259,0,0,0,1.292-.868c1.36-1.54.626-3.789.83-5.769a11.772,11.772,0,0,1,2.163-4.889l8.339,18.333q-1.265,2.982-2.367,6.025A45.6,45.6,0,0,1,371.5,444.353Z" transform="translate(-82.78 -230.086)"/><path class="g" d="M318.688,273.487c-.15,2.554,1.265,4.889,2.1,7.333a23.425,23.425,0,0,1-.395,14.348c-1.524,4.889-4.081,10.059-2.136,14.837.449,1.125,1.129,2.151,1.537,3.276,1.687,4.644-1.442,9.533-4.87,13.334l13.454,8.47a16.264,16.264,0,0,0,6.8,2.921c2.517.269,5.442-.941,5.958-3.165.177-.758,0-1.552.163-2.322a6.392,6.392,0,0,1,3.768-4.693,13.54,13.54,0,0,1,6.516-1.088c8.258.4,15.277,5.28,22.787,8.409a99.092,99.092,0,0,0,15.332,4.571c2.979.7,6.285,1.332,8.979,0a7.39,7.39,0,0,0,3.727-7.223,21.978,21.978,0,0,0-2.857-7.956,18.745,18.745,0,0,1-2.626-8.005c0-4.106,2.5-7.846,3.347-11.88,1.184-5.732-1.224-11.562-4.163-16.768s-6.5-10.217-7.931-15.889a21.365,21.365,0,0,0-1.483-5.023,11.626,11.626,0,0,0-2.721-3.275c-5.047-4.486-12.244-6.612-19.29-7.077s-14.162.574-21.154,1.662a48.451,48.451,0,0,0-7.849,1.674,51.872,51.872,0,0,0-10.325,5.023C322.171,266.96,318.892,269.857,318.688,273.487Z" transform="translate(40.612 -224.215)"/><g class="h" transform="translate(355.486 48.465)"><path d="M375.17,306.076a4.836,4.836,0,0,0,.082,1.088c.422-3.581,2.517-6.942,3.265-10.523a15.643,15.643,0,0,0,.259-4.351,10.769,10.769,0,0,1-.259,1.907C377.66,298.23,375.116,301.97,375.17,306.076Z" transform="translate(-293.166 -264.73)"/><path d="M320.7,282.768a19.783,19.783,0,0,0-.911-7.333,39.4,39.4,0,0,1-1.973-5.7c0,.257-.109.5-.122.758-.15,2.554,1.265,4.889,2.1,7.333a18.737,18.737,0,0,1,.912,4.938Z" transform="translate(-313.884 -269.74)"/><path d="M402.3,319.518a6.929,6.929,0,0,1-3.646,5.39c-2.721,1.332-6,.7-8.979,0a97.809,97.809,0,0,1-15.332-4.583c-7.509-3.117-14.529-7.993-22.787-8.4a13.542,13.542,0,0,0-6.516,1.088,6.392,6.392,0,0,0-3.768,4.693c-.1.77,0,1.564-.163,2.322-.531,2.224-3.442,3.434-5.959,3.165a16.264,16.264,0,0,1-6.8-2.921l-12.094-7.626c-.449.55-.9,1.088-1.36,1.589l13.454,8.482a16.264,16.264,0,0,0,6.8,2.921c2.517.269,5.442-.941,5.959-3.165.177-.758,0-1.552.163-2.322a6.392,6.392,0,0,1,3.768-4.693,13.541,13.541,0,0,1,6.516-1.088c8.258.4,15.277,5.28,22.787,8.4a97.8,97.8,0,0,0,15.332,4.583c2.979.7,6.285,1.332,8.979,0a7.39,7.39,0,0,0,3.728-7.223C402.363,319.921,402.323,319.725,402.3,319.518Z" transform="translate(-314.89 -260.376)"/><path d="M319.092,304.41a8.641,8.641,0,0,1,.367,1.5,8,8,0,0,0-.367-3.948c-.408-1.124-1.088-2.151-1.537-3.276a9.34,9.34,0,0,1-.626-2.53,10.4,10.4,0,0,0,.626,4.974C318,302.259,318.684,303.3,319.092,304.41Z" transform="translate(-314.181 -263.87)"/></g><path class="g" d="M340.844,686.907a1.593,1.593,0,0,1-.626.88,2.28,2.28,0,0,1-1.075.208c-4.843.1-9.686,0-14.515.305-4.571.354-9.155,1.222-13.713.758a7.09,7.09,0,0,1-6.8-4.021,15.123,15.123,0,0,1-.762-1.638,22.165,22.165,0,0,1-1.864-9.044c0-.819,0-1.613,0-2.444a16.752,16.752,0,0,0-.395-2.664,3.669,3.669,0,0,1,.136-3.092c1.932-3.166,6.6-3.8,10.189-4.045a93.4,93.4,0,0,1,24.827,1.638c.639,2.811,1.36,5.6,2.122,8.384q.843,3.068,1.8,6.111a31.369,31.369,0,0,1,1.034,3.826A8.831,8.831,0,0,1,340.844,686.907Z" transform="translate(31.68 -134.142)"/><path class="i" d="M340.172,683.236a1.593,1.593,0,0,1-.626.88,2.283,2.283,0,0,1-1.075.208c-4.843.1-9.686,0-14.515.305-4.571.354-9.156,1.222-13.713.758a7.09,7.09,0,0,1-6.8-4.021,15.142,15.142,0,0,1-.762-1.638h1.741c5.727,0,11.468-.184,17.2-.184a48.892,48.892,0,0,0,5.183-.257c1.714-.184,3.115-.44,4.68-.611q3.513-.3,7.047-.257h1.932A8.825,8.825,0,0,1,340.172,683.236Z" transform="translate(32.602 -130.472)"/><path class="g" d="M424.595,667.316a14.011,14.011,0,0,1-5.632,3.557c-9.686,3.667-20.882,2.016-30.881-.966a35.721,35.721,0,0,0-13.3-2.175c-1.537,0-3.074-.11-4.612-.2-3.891-.22-7.768-.562-11.631-.9a58.1,58.1,0,0,1-8-1.088,9.069,9.069,0,0,1-2.136-.782h0a2.96,2.96,0,0,1-1.959-2.628c.109-1.552,1.9-2.444,3.483-3.117,14-5.439,29.208-7.8,44.308-9.692a19.27,19.27,0,0,0,4.448-1.222c1.7-.611,1.877.391,2.721,1.516a9.767,9.767,0,0,0,1.36,1.442,16.683,16.683,0,0,0,5.659,2.982c3.673,1.222,7.6,1.552,11.278,2.713a16.252,16.252,0,0,1,3.17,1.369,5.955,5.955,0,0,1,3.336,4.23,5.505,5.505,0,0,1-1.677,4.961Z" transform="translate(57.325 -137.248)"/><path class="i" d="M418.309,665.461a14.012,14.012,0,0,1-5.632,3.557c-9.686,3.667-20.882,2.017-30.881-.965a35.715,35.715,0,0,0-13.3-2.176c-1.537,0-3.075-.11-4.612-.2,1.252-1.063,2.53-2.1,3.836-3.1a11.617,11.617,0,0,1,3.224-1.907,10.345,10.345,0,0,1,4.584-.281c7.781.966,14.774,5.867,22.623,5.439a30.094,30.094,0,0,0,10.407-3.019,18.259,18.259,0,0,0,6.8-4.351,6.831,6.831,0,0,0,1.265-2.188,5.955,5.955,0,0,1,3.336,4.23,5.505,5.505,0,0,1-1.677,4.961Z" transform="translate(65.832 -135.392)"/><path class="j" d="M410.245,508.969c-1.36,2.444-3.1,5.1-6.04,5.854-4.272,1.1-8.38-2.347-10.244-5.964a23.341,23.341,0,0,1-1.36-16.817c.775-2.823,1.959-5.537,2.626-8.372a46.02,46.02,0,0,0,.871-7.223,39.721,39.721,0,0,0-.286-10.853c-2.19-10.5-12.243-18.333-15.59-28.648-1.687-5.145-1.605-10.621-1.51-15.986a14.835,14.835,0,0,1,.462-4.033,5.886,5.886,0,0,1,.408-1.051c2.245-4.473,8.9-5.084,13.522-7.688,2.558-1.43,8.366-6.038,10.516-1.833a12.841,12.841,0,0,1,1.034,2.921c.884,3.74.531,8.128.748,11.66.83,13.346,4.53,26.668,2.816,39.941a37.531,37.531,0,0,0-.6,6.844c.367,5.744,4.367,10.719,6.2,16.218C416.653,492.213,414.381,501.221,410.245,508.969Z" transform="translate(72.997 -191.305)"/><path class="d" d="M404.57,409.3a5.074,5.074,0,0,0-3.129,0l-9.21,2.444a61.33,61.33,0,0,0-9.4,3.068,22.592,22.592,0,0,0-3.741,2.09,5.878,5.878,0,0,1,.408-1.051c2.245-4.473,8.9-5.084,13.522-7.688,2.558-1.43,8.366-6.038,10.516-1.833a12.822,12.822,0,0,1,1.034,2.97Z" transform="translate(72.819 -191.309)"/><path class="g" d="M410,427.3a4.578,4.578,0,0,0-3.728-.269l-9.21,2.444a61.321,61.321,0,0,0-9.4,3.068,22,22,0,0,0-4.476,2.615c-4.3-6.71-5.442-14.666-6.231-22.366-.435-4.485-.762-8.983-.952-13.444a54.194,54.194,0,0,1,.218-9.631c.517-3.667,1.7-7.248,2.435-10.89a44.883,44.883,0,0,0,.843-6.453,56.777,56.777,0,0,0-.721-14.165A80.354,80.354,0,0,0,375,343.54c-.871-2.188-1.918-4.3-2.87-6.453l-.326-.758a82.6,82.6,0,0,1-4.2-12.112c-.435-1.687-.462-3.459-1.9-4.608a28.464,28.464,0,0,1,4.081-.147h.816a32.8,32.8,0,0,1,15.563,4.889,33.286,33.286,0,0,1,12.9,15.326c2.87,6.881,3.346,14.361,3.714,21.706q1.1,21.657,1.36,43.339c0,2.774.136,5.732,1.9,8.018a16.428,16.428,0,0,1,1.36,1.772c.639,1.222.544,2.579,1.061,3.813a18.735,18.735,0,0,0,1.292,2.151A7.168,7.168,0,0,1,410,427.3Z" transform="translate(66.398 -210.231)"/><path class="j" d="M332.781,290.532c-1.36-.4-2.721-.831-4.081-1.222l2.83.2a5.54,5.54,0,0,1,1.252,1.027Z" transform="translate(45.434 -216.926)"/><path class="j" d="M390.278,334.414c-.272.831-.544,1.662-.843,2.444a43.936,43.936,0,0,1-2.517,5.879,27.48,27.48,0,0,1-6.435,8.384,8.674,8.674,0,0,1-3.21,1.907,11.315,11.315,0,0,1-3.156.269q-5.441,0-10.883-.147a42.89,42.89,0,0,1-8.407-.746,31.767,31.767,0,0,1-8.571-3.471c-10.162-5.646-18.515-14.251-22.093-24.444-.449-1.3-.762-2.848.231-3.862a5.655,5.655,0,0,1,3.469-1.063h.163a23.618,23.618,0,0,0,8.285-2.554,8.111,8.111,0,0,0,3.782-3.471,8.455,8.455,0,0,0-.122-5.4l-3.02-12.32a12.046,12.046,0,0,0-2.408-5.488c.884.281,1.769.538,2.721.758,8.407,2.041,17.6.807,25.847,3.483,3.156,1.039,6.312,2.909,7.264,5.818,1.592,4.889-3.727,9.961-2.2,14.85,1.02,3.324,4.789,5.243,8.162,6.8l2.272,1.039,6.3,2.872.871.391.136.061c1.986.9,4.081,2.029,4.775,3.948a6.638,6.638,0,0,1-.408,4.07Z" transform="translate(44.71 -216.7)"/><path class="d" d="M406.875,358.049a24.241,24.241,0,0,1-2.5,9.044,33.941,33.941,0,0,0-4.285,15.888c-1.047,16.5-8.026,36.14,1.973,50,.245.342.49.684.721,1.039a22,22,0,0,0-4.476,2.615c-4.3-6.71-5.442-14.666-6.231-22.366-.435-4.485-.762-8.983-.952-13.444a54.206,54.206,0,0,1,.218-9.631c.517-3.667,1.7-7.248,2.435-10.89a44.875,44.875,0,0,0,.843-6.453,56.779,56.779,0,0,0-.721-14.165,80.354,80.354,0,0,0-3.782-14.666c-.871-2.188-1.918-4.3-2.87-6.453l-.326-.758a27.481,27.481,0,0,1-6.435,8.384,8.677,8.677,0,0,1-3.211,1.907,11.316,11.316,0,0,1-3.156.269q-5.442,0-10.883-.147a42.9,42.9,0,0,1-8.407-.745,31.773,31.773,0,0,1-8.57-3.471c-10.162-5.646-18.515-14.251-22.093-24.444-.449-1.3-.762-2.848.231-3.862a5.656,5.656,0,0,1,3.469-1.063h.163l12.243,13.6a22,22,0,0,1,3.537,4.754,2.842,2.842,0,0,0,1.088,1.454,3.068,3.068,0,0,0,1.36.22h38.309a8.294,8.294,0,0,0-1.687-5.145c-.354.073-.83.1-.1-.1a32.291,32.291,0,0,0-4.217-11.33,7.642,7.642,0,0,0-.422-.709,12.451,12.451,0,0,1-2.013-3.96,8.14,8.14,0,0,1,4.462,0c1.673.648,2.544,2.273,3.279,3.777.626,1.222,1.252,2.53,1.809,3.813,0,.134.136.281.191.416a25.437,25.437,0,0,1,2.258,7.932c.082,1,.354,2.273,1.279,2.6a1.327,1.327,0,0,0,.463.1,5.546,5.546,0,0,1,5.564,1.222,10.636,10.636,0,0,1,2.721,4.815,24.55,24.55,0,0,0,1.932,5.182c1.755,3.007-.925,4.351,2.245,6.2a10.736,10.736,0,0,1,3.727,3.007,8.528,8.528,0,0,1,.816,5.561Z" transform="translate(45.227 -211.637)"/><path class="d" d="M336.156,663.787c.639,2.811,1.36,5.6,2.122,8.384l-.082.171c-6.217-2.444-12.584-5-19.372-5.536-6.3-.489-13.141,1.039-17.427,5.145a16.768,16.768,0,0,0-.395-2.664,3.67,3.67,0,0,1,.136-3.092c1.932-3.165,6.6-3.8,10.189-4.045a93.409,93.409,0,0,1,24.827,1.638Z" transform="translate(31.55 -134.133)"/><path class="d" d="M366.259,328.37c.639,0,.408,0,.1.1S365.525,328.566,366.259,328.37Z" transform="translate(64.964 -208.248)"/><path class="d" d="M402.828,651.061A117.5,117.5,0,0,0,385.8,662.9a17.87,17.87,0,0,1-5.374,3.532,17.385,17.385,0,0,1-6.475.6,244.578,244.578,0,0,1-25.548-2.273h0a2.96,2.96,0,0,1-1.959-2.628c.109-1.552,1.9-2.444,3.483-3.117,14-5.439,29.208-7.8,44.308-9.692a19.253,19.253,0,0,0,4.448-1.222c1.7-.611,1.877.391,2.721,1.516a9.841,9.841,0,0,0,1.428,1.442Z" transform="translate(56.514 -137.248)"/><path class="k" d="M323.135,317.554c2,1.6,4.285,2.9,6.312,4.449,5.442,4.143,8.87,9.936,12.244,15.583a12.564,12.564,0,0,1-6.244.379,36.245,36.245,0,0,0,.531,16.341,15.588,15.588,0,0,0-6.081,6.783,41.368,41.368,0,0,0-1.986,8.555q-2.939,19.078-5.9,38.157a5.553,5.553,0,0,1-1.36,3.434,7.018,7.018,0,0,0-1.034.917,4.617,4.617,0,0,0-.476,2.628c-.082.892-.735,1.956-1.728,1.833a2.183,2.183,0,0,1-1.211-.709,25.655,25.655,0,0,1-2.721-3.031c-8.026,13.835-11.89,28.746-16.134,43.877-3.034,10.78-6.067,21.682-6.217,32.8a127.222,127.222,0,0,0,1.1,15.742l1.2,10.731c.966,8.629,1.932,17.27,2.979,25.9.68,5.475,1.36,11,3.551,16.157,3.265,7.834-.354,16.671,1.034,24.957,1.088,6.49,3.251,13.2,1.075,19.457-.871,2.505-2.394,4.791-3.537,7.211-2.8,6.013-3.088,12.7-3.333,19.213a72.555,72.555,0,0,0,.707,17.111c1.17,5.854,3.8,11.586,3.279,17.5-.721,8.421-7.632,15.62-8.475,24.028-.667,6.71,2.612,13.187,6.135,19.139,2.6,4.388-1.02,10.059-2.394,14.886-2.721,9.46,1.809,19.359,7.36,27.756a1.408,1.408,0,0,0,.707.66c.639.208,1.211-.354,1.632-.831,4.176-4.815,11.577-6.636,18.365-6.111s13.141,3.043,19.372,5.537l8.829-17.66c1.5-2.994,3.02-6.233,2.272-9.448-.531-2.3-2.177-4.241-3.347-6.343-2.721-4.962-2.857-10.743-2.884-16.3l-.163-31.41c6.884-7.773,11.087-17.013,13.74-26.668a77.145,77.145,0,0,1,.816,41.554,34.319,34.319,0,0,0-1.36,6.331c-.531,8.714,7.074,16.084,9.1,24.615a4.773,4.773,0,0,1,.163,2,7.187,7.187,0,0,1-1.129,2.322c-3.646,5.94-3.251,13.138-2.721,19.909a244.944,244.944,0,0,0,28.854,2.774,13.314,13.314,0,0,0,11.849-4.143,118.373,118.373,0,0,1,20.229-13.75A45.1,45.1,0,0,0,409.6,707.713c2.19-2.9,7.183-2.664,10.094-4.986a8.283,8.283,0,0,0,2.721-4.815c1.088-4.791-.259-9.778-1.605-14.483-2.612-9.264-5.238-18.565-9.523-27.316a99.314,99.314,0,0,1-5.115-11.061c-3.564-10.535-1.075-22-3.768-32.767-.871-3.447-2.272-7-1.292-10.437,1.5-5.292,8.162-8.433,9.632-13.737,5.265-18.883,6.2-38.45,9.2-57.724a66.813,66.813,0,0,0,1.075-11.134c0-3.9-.775-7.761-1.088-11.648-1.224-15.558,4.312-31.08,2.9-46.626a54.834,54.834,0,0,0-10.23-26.888c-10-13.872-3.02-33.5-1.973-50a33.769,33.769,0,0,1,4.272-15.889,23.954,23.954,0,0,0,2.517-9.044,8.49,8.49,0,0,0-.762-5.708,10.426,10.426,0,0,0-3.714-3.007c-3.17-1.858-.49-3.2-2.245-6.209a24.293,24.293,0,0,1-1.932-5.182,10.545,10.545,0,0,0-2.721-4.8,5.546,5.546,0,0,0-5.564-1.222c-1.292,0-1.646-1.54-1.755-2.7-.367-4.253-2.326-8.25-4.244-12.161-.735-1.5-1.605-3.129-3.278-3.776a8.306,8.306,0,0,0-4.476,0,12.418,12.418,0,0,0,2.027,3.972,32.246,32.246,0,0,1,4.625,12.026c-1.36.367,1.36,0,0,0a7.961,7.961,0,0,1,1.782,5.243h-38.3a2.993,2.993,0,0,1-1.36-.22,2.944,2.944,0,0,1-1.1-1.454,21.188,21.188,0,0,0-3.537-4.742L337.392,314.29a3.3,3.3,0,0,0-1.156-.941,3.47,3.47,0,0,0-1.7,0C330.168,313.924,326.944,315.561,323.135,317.554Z" transform="translate(28.912 -211.609)"/><path class="d" d="M353.088,482.21a14.141,14.141,0,0,1,6.625,1.54,5.914,5.914,0,0,1,3.292,5.158c-.15,2.31-2.122,4.143-3.551,6.111a15.753,15.753,0,0,0-2.1,3.862,1.408,1.408,0,0,0-.109.99c.163.465.721.7,1.2.9a9.227,9.227,0,0,1,6,8.018c-.122,4.767-5.306,8.629-5.02,13.444a25.108,25.108,0,0,0,.571,2.982,20.687,20.687,0,0,1-1.837,12.087c-1.646,3.838-3.891,7.443-5.659,11.244-4.775,10.327-5.809,21.767-5.442,33,.286,7.627-2.721,14.886-5.442,22.146a286.136,286.136,0,0,0,1.224-44c-.19-3.984-.748-7.749-.544-11.745.327-6.343,4.272-12.112,5.278-18.333.571-3.557.19-7.174.286-10.767.19-7.333,2.408-14.569,2.558-21.926C350.612,491.731,350.082,486.378,353.088,482.21Z" transform="translate(52.846 -174.066)"/><path class="g" d="M313.941,319.5a37.913,37.913,0,0,0-7.537,4.473,29.216,29.216,0,0,0-5.959,7.333,89.836,89.836,0,0,0-5.047,9.484c-1.918,4.2-3.51,8.861-2.19,13.249,1.2,3.972,4.585,7.064,6.924,10.6s3.714,7.675,5.51,11.55c2.394,5.17,5.673,9.985,8.04,15.167s3.8,11,2.3,16.39c-.435,1.589-3.306,2.823-3.306,4.449,0,2.689,4.326,5.61,7.2,6.392,3.306.917,6.911-.452,9.618-2.444,4.965-3.532,7.986-8.824,10.217-14.153,3.591-8.555,5.51-17.636,7.237-26.656,1.252-6.624,2.422-13.261,3.088-19.934.612-6.013.8-12.222-.966-17.991a30.15,30.15,0,0,0-9.292-13.884c-3.537-3.055-9.332-7.162-14.475-7.272C321.233,316.238,317.423,317.778,313.941,319.5Z" transform="translate(27.828 -210.941)"/><path class="j" d="M359.621,449.548a5.859,5.859,0,0,1-3.034,4.07,19.045,19.045,0,0,1-5.183,1.907c-3.646.953-7.509,1.833-11.2.99a23.238,23.238,0,0,1-7.863-4.021l-41.193-28.33a54.185,54.185,0,0,1-9.074-7.235,52.474,52.474,0,0,1-4.3-5.488,25.944,25.944,0,0,1-4-7.138,11.818,11.818,0,0,1-.49-3.434,5.95,5.95,0,0,1,.871-3.141c.993-1.491,3.115-1.8,4.857-2.212a56.543,56.543,0,0,1,17.916-1.222,2.444,2.444,0,0,1,2.422,1.479c.911,1.5,1.7,3.068,2.517,4.632a32.881,32.881,0,0,0,4.857,7.468,67.412,67.412,0,0,0,6.054,5.243c4.353,3.667,7.917,8.066,12.556,11.44,5.374,3.9,11.9,6.233,18.025,9.105s12.162,6.6,15.237,12.161a6.558,6.558,0,0,1,1.02,3.728Z" transform="translate(18.15 -193.653)"/><path class="d" d="M389.647,283.241c0,16.024-13.895,29.268-31.693,30.214s-33.331-10.727-35.437-26.634,9.95-30.532,27.5-33.361,34.513,7.119,38.693,22.691a27.232,27.232,0,0,1,.939,7.089Z" transform="translate(43.936 -224.998)"/><path class="j" d="M389.647,282.241c0,16.024-13.895,29.268-31.693,30.214s-33.331-10.727-35.437-26.634,9.95-30.532,27.5-33.361,34.513,7.119,38.693,22.692a27.233,27.233,0,0,1,.939,7.089Z" transform="translate(43.936 -225.221)"/><path class="d" d="M301.872,400.355c-1.551.892-3.85.6-5.768.208-7.564-1.516-15.917-2.6-22.814.305a5.949,5.949,0,0,1,.871-3.141c.993-1.491,3.115-1.8,4.857-2.212a56.542,56.542,0,0,1,17.916-1.222,2.444,2.444,0,0,1,2.422,1.479C300.267,397.226,301.056,398.79,301.872,400.355Z" transform="translate(16.733 -193.653)"/><path class="g" d="M288.085,371.344c-1.673,4.889-3.047,9.912-6.326,14.055a10.18,10.18,0,0,0-2.394,3.764,10.649,10.649,0,0,1-.558,3.031c-.463.831-1.442,1.381-1.837,2.237-.585,1.222.177,2.8-.6,3.948a6.192,6.192,0,0,1-1.292,1.222c-1.85,1.54-2.313,4-2.353,6.27s.2,4.6-.626,6.734c7.183-3.85,16.325-2.7,24.487-1.063,2.272.452,5.088.794,6.557-.843s.626-3.789.83-5.756c.272-2.567,2.231-4.693,3.442-7.028,1.36-2.628,1.823-5.561,2.87-8.3,2.163-5.757,6.8-10.45,9.781-15.888A14.12,14.12,0,0,0,322,367.69a16.613,16.613,0,0,0-2.326-7.834,104.655,104.655,0,0,0-10.067-16.145c-1.728-2.285-4.707-6.514-7.387-2.86-2.177,2.945-3.537,6.7-5.142,9.924a171.1,171.1,0,0,0-8.992,20.569Z" transform="translate(16.607 -205.793)"/><path class="g" d="M394.439,342.552a29.2,29.2,0,0,1-22.011-7.81,3,3,0,0,1-.98-1.43,2.665,2.665,0,0,1,.626-2c1.632-2.261,4.448-3.752,5.754-6.184s.857-5.231.98-7.9c.218-4.779,2.313-9.509,2.489-14.214a13.377,13.377,0,0,0-.3-3.593,20.506,20.506,0,0,1-1.143-5.414c.177-3.581,3.768-6.368,4.367-9.9.776-4.5-3.374-8.409-7.55-11a47.02,47.02,0,0,0-10.285-4.779,36.651,36.651,0,0,0-6.911-1.5,29.79,29.79,0,0,0-13.019,1.308,22.16,22.16,0,0,0-4.843,2.322,6.23,6.23,0,0,0-2.163,2.017,5.977,5.977,0,0,0-.571,2.921c-.082,5,.544,10.315-2.109,14.666-1.36,2.334-3.673,4.229-4.8,6.7a10.209,10.209,0,0,0-.857,3.214,29.137,29.137,0,0,0-.2,3.447c-.082,6.441,0,13.236,3.646,18.822a48.285,48.285,0,0,1,3.5,5.268,5.478,5.478,0,0,1-.34,5.854,7.4,7.4,0,0,1-2.721,1.833,24.023,24.023,0,0,1-17.4.562c6.674-5.682,8.724-14.488,5.142-22.1a12.188,12.188,0,0,1-1.877-4.889,11.444,11.444,0,0,1,1.361-4.473,22.1,22.1,0,0,0,.83-14.324c-.83-2.909-2.272-5.72-2.53-8.714a23.72,23.72,0,0,1,.327-6.771c1.52-8.153,8-14.852,16.774-17.343.694-.208,1.36-.4,2.122-.574a50.172,50.172,0,0,1,10.053-.965c7.55-.22,15.209-.416,22.487,1.357a31.526,31.526,0,0,1,11.645,5.378,19.234,19.234,0,0,1,5.632,6.685,21.535,21.535,0,0,1,1.592,4.62c.313,1.308.544,2.628.775,3.948,1.646,9.4,3.292,18.981,1.537,28.367-.694,3.667-1.9,7.333-2.449,11.073C389.691,325.649,392.072,334.217,394.439,342.552Z" transform="translate(41.716 -224.446)"/><ellipse class="l" cx="2.53" cy="2.273" rx="2.53" ry="2.273" transform="translate(386.374 125.634)"/><ellipse class="l" cx="2.53" cy="2.273" rx="2.53" ry="2.273" transform="translate(434.348 124.559)"/><path class="d" d="M339.992,242.709l-5.442-9.228a9.483,9.483,0,0,1,1.129-1.027,4.7,4.7,0,0,1,2.626-.562Z" transform="translate(48.565 -229.687)"/><path class="d" d="M352.142,231.832l-6.163,8.189-3.51-8.983a12.238,12.238,0,0,1,4.748-.807,16.962,16.962,0,0,1,4.925,1.6Z" transform="translate(52.882 -230.054)"/><g class="h" transform="translate(359.306 39.704)"><path d="M337.71,317.544a7.4,7.4,0,0,1-2.721,1.833,24.134,24.134,0,0,1-15.468,1.161,20.067,20.067,0,0,1-1.932,1.845,24.024,24.024,0,0,0,17.4-.562,7.4,7.4,0,0,0,2.721-1.833,4.835,4.835,0,0,0,.871-4.229A4.134,4.134,0,0,1,337.71,317.544Z" transform="translate(-317.59 -250.754)"/><path d="M322.228,285.967a21.8,21.8,0,0,1,.775,4.889,21.981,21.981,0,0,0-.775-7.333c-.83-2.909-2.272-5.72-2.53-8.714a6.583,6.583,0,0,0-.068-1.149,24.506,24.506,0,0,0,.068,3.593C319.956,280.248,321.4,283.059,322.228,285.967Z" transform="translate(-316.868 -260.108)"/><path d="M374.027,298.588a48.135,48.135,0,0,0,.735-9.778,45.916,45.916,0,0,1-.735,7.333c-.694,3.667-1.9,7.333-2.449,11.073a34.693,34.693,0,0,0-.313,6.05,32.479,32.479,0,0,1,.313-3.606C372.123,305.921,373.334,302.291,374.027,298.588Z" transform="translate(-298.253 -256.742)"/><path d="M321.828,301.787a18.992,18.992,0,0,1-1.714-3.777,4.991,4.991,0,0,0-.163,1.344,12.189,12.189,0,0,0,1.877,4.889,16.933,16.933,0,0,1,1.7,6.478A17.248,17.248,0,0,0,321.828,301.787Z" transform="translate(-316.74 -254.698)"/><path d="M364.514,292.534a14.464,14.464,0,0,1,.258,1.687v-.538a13.382,13.382,0,0,0-.3-3.593c-.3-1.283-.789-2.554-1.02-3.85a4.895,4.895,0,0,0-.122.88,20.52,20.52,0,0,0,1.184,5.414Z" transform="translate(-301.106 -257.313)"/><path d="M358.165,318.4a6.683,6.683,0,0,1-.585-.623,2.323,2.323,0,0,0-.395,1.638,3,3,0,0,0,.98,1.43,29.2,29.2,0,0,0,22.011,7.81c-.231-.807-.463-1.6-.68-2.444a29.1,29.1,0,0,1-21.331-7.81Z" transform="translate(-303.328 -250.305)"/><path d="M378.565,280.206a.471.471,0,0,1,0-.135c.776-4.5-3.374-8.409-7.55-11a47.02,47.02,0,0,0-10.285-4.779,36.649,36.649,0,0,0-6.911-1.5A29.789,29.789,0,0,0,340.8,264.1a22.158,22.158,0,0,0-4.843,2.322,6.231,6.231,0,0,0-2.163,2.017,5.976,5.976,0,0,0-.571,2.921c0,.843,0,1.687,0,2.542v-.1a5.977,5.977,0,0,1,.571-2.921,6.231,6.231,0,0,1,2.163-2.017,22.154,22.154,0,0,1,4.843-2.322,29.79,29.79,0,0,1,13.019-1.308,36.651,36.651,0,0,1,6.911,1.5,47.019,47.019,0,0,1,10.285,4.779C374.484,273.618,377.9,276.649,378.565,280.206Z" transform="translate(-311.96 -262.572)"/><path d="M333.243,283.541c-1.36,2.334-3.673,4.229-4.8,6.7a10.212,10.212,0,0,0-.857,3.214,29.155,29.155,0,0,0-.2,3.447v2.444a29.16,29.16,0,0,1,.2-3.452,10.211,10.211,0,0,1,.856-3.209c1.129-2.444,3.387-4.363,4.8-6.7,2.19-3.667,2.149-7.883,2.109-12.075a18.619,18.619,0,0,1-2.109,9.631Z" transform="translate(-314.062 -260.052)"/></g><path class="d" d="M390.215,274.5a3.725,3.725,0,0,1-.653.648,6.41,6.41,0,0,1-1.592.856c-3.959,1.54-3.8-3.483-5.863-5.207a7.608,7.608,0,0,0-4.6-1.222q-5.972-.269-11.958-.477c-6.652-.22-13.291-.33-19.93-.2q-4.775.073-9.523.354c-3.673.22-7.618.648-10.747,2.212a11.3,11.3,0,0,0-2.87,2.017,5.444,5.444,0,0,1-2.571,1.833c1.52-8.153,8-14.852,16.774-17.343,14.475-9.687,34.878-7.4,46.253,5.194a19.235,19.235,0,0,1,5.632,6.685,21.565,21.565,0,0,1,1.646,4.644Z" transform="translate(42.758 -225.219)"/><path class="m" d="M388.341,278.4c-3.959,1.54-3.8-3.483-5.863-5.207a7.608,7.608,0,0,0-4.6-1.222,403.493,403.493,0,0,0-41.41-.318c-4.911.293-10.3.953-13.6,4.229-.843.831-1.728,1.907-2.993,1.87-.422-2.444-.721-4.987-.925-7.492a7.508,7.508,0,0,1,.163-2.811c.34-1.051,1.115-1.943,1.51-2.97a10.741,10.741,0,0,0,.408-4.009c.121-10.142,6.138-19.487,15.862-24.639a14.6,14.6,0,0,0,3.306-2,9.494,9.494,0,0,1,1.129-1.027,4.7,4.7,0,0,1,2.626-.562h1.932a19.155,19.155,0,0,0,5.1-1.222,12.237,12.237,0,0,1,4.748-.807,16.961,16.961,0,0,1,4.925,1.6,12.836,12.836,0,0,0,2.3.746c1.238.257,2.517.244,3.755.464a19.41,19.41,0,0,1,5.632,2.249A26.988,26.988,0,0,1,378,238.937a22.248,22.248,0,0,1,4.38,6.4,42.948,42.948,0,0,1,4.081,10.169c1.1,5.06.558,10.535,3.17,15.131C391.225,273.525,392.68,276.727,388.341,278.4Z" transform="translate(42.27 -230.059)"/><path class="d" d="M319.25,268.594s28.2-23.051,70.2-3.935C389.446,264.659,342.037,254.967,319.25,268.594Z" transform="translate(42.4 -224.089)"/><path class="n" d="M95.7,384.129c-3.836-5.647-9.6-10.816-8.707-17.221,10.557,1.088,20.569-1.222,30.242-5.243s18.651-9.24,27.711-14.361c3.564-2.017,7.115-4,10.652-5.83,5.6-2.884,11.169-6.111,16.869-8.934,8.162-4.033,16.488-7.333,25.657-7.969q2.491-.175,4.993-.11c11.291.2,22.991,2.921,32.922-1.625l.612-.293c5.632-2.774,9.727-7.492,14.556-11.318a65.643,65.643,0,0,1,11.278-7.04c7.333-3.667,15.277-6.6,22.773-10.059A35.247,35.247,0,0,0,290.7,291l1.279-.917.286-.22c.313-.232.626-.464.925-.709l.585-.464.6-.489.463-.391.748-.635.082-.086,1.184-1.051.476-.428.83-.77.49-.44c.83-.77,1.66-1.552,2.5-2.31s1.986-1.784,3.006-2.628h0l.98-.782.286-.22.789-.587.367-.281.775-.538.381-.269c.381-.257.775-.5,1.17-.746a8.787,8.787,0,0,1,1.143-.6L307.5,269.9l7.319-2.713L415.761,487.245l-7.333,2.713L350.694,364.073l-.408.367a119.18,119.18,0,0,1-47.736,25.519h-.109c-10.053,2.726-21.3,4.657-29.766,9.716a27.494,27.494,0,0,0-7.686,6.612c-1.986,2.542-3.374,5.439-5.442,7.883-.394.452-.83.892-1.265,1.308a46.866,46.866,0,0,1-8.162,5.818l-1.292.794a271.3,271.3,0,0,1-27.344,15.143,114.949,114.949,0,0,1-16.991,6.355c-4.258,1.222-8.652,2.114-12.91,3.324a53.986,53.986,0,0,0-8.312,3.007c-7.21,3.385-12.747,8.69-17.984,14.348-4.585,4.962-8.938,10.218-13.971,14.74-3.156,2.811-7.958,5.475-11.767,3.825l-.775-.4c.122-.183.218-.367.326-.562,3.006-5.659-.694-12.65-5.673-17.184-.517-.477-1.048-.941-1.592-1.381s-1.524-1.222-2.3-1.833c-4.258-3.288-8.788-6.343-11.74-10.584a32.3,32.3,0,0,1-4.517-11.5c-1.36-5.757-2.272-11.684-5.754-16.585-2.285-3.239-5.686-6-8.162-9.105a13.19,13.19,0,0,1-2.993-6.282c-.558-3.972,1.5-7.859,2.272-11.819a13.293,13.293,0,0,0,.286-3.275,16.25,16.25,0,0,0-3.224-8.189Z" transform="translate(-82.791 -221.841)"/><path class="o" d="M0,0,7.68.279,17,238.134l-7.68-.279Z" transform="translate(360.063 263.558) rotate(157.6)"/><path class="p" d="M109.212,420.3c3.415,4.828,4.326,10.645,5.646,16.3a32.13,32.13,0,0,0,4.448,11.317c2.911,4.168,7.36,7.174,11.536,10.4.762.6,1.524,1.222,2.258,1.809.531.428,1.061.892,1.564,1.344,4.9,4.461,8.53,11.342,5.578,16.9a4.492,4.492,0,0,1-.313.55,6.42,6.42,0,0,0,.748.391c3.755,1.638,8.475-.978,11.577-3.752,4.952-4.449,9.237-9.606,13.74-14.483,5.142-5.573,10.6-10.792,17.685-14.116a52.3,52.3,0,0,1,8.162-2.958c4.176-1.222,8.5-2.09,12.693-3.263a113.835,113.835,0,0,0,16.706-6.245,268.63,268.63,0,0,0,26.936-14.9l1.279-.782a46.313,46.313,0,0,0,8.026-5.708c.435-.415.857-.843,1.252-1.3,2.095-2.444,3.469-5.243,5.441-7.749a27.054,27.054,0,0,1,7.564-6.5c8.326-4.974,19.372-6.881,29.262-9.557h.109a117.42,117.42,0,0,0,46.934-25.092,6.892,6.892,0,0,0,2.354-3.1c.422-1.723-.612-3.434-1.605-4.95-1.156-1.784-2.285-3.569-3.4-5.378a230.2,230.2,0,0,1-13.413-25.336c-.857-1.907-1.687-3.8-2.49-5.72q-3.088-7.333-5.632-14.874c-.558-1.662-1.1-3.337-1.619-5.011-.1-.318-.2-.66-.3-1.027-2.258-8.152-5.278-27.23-14.583-21.523a52.612,52.612,0,0,0-7.686,6c-1.809,1.65-3.578,3.349-5.442,4.987a53.721,53.721,0,0,1-4.8,3.777,36.07,36.07,0,0,1-5.442,3.08c-7.387,3.4-15.2,6.245-22.392,9.888a64.281,64.281,0,0,0-11.1,6.918c-4.748,3.764-8.775,8.409-14.311,11.134l-.6.293c-9.768,4.461-21.263,1.784-32.377,1.589q-2.45-.055-4.9.11c-9.019.611-17.263,3.862-25.235,7.834-5.6,2.787-11.074,5.94-16.583,8.788-3.483,1.8-6.965,3.74-10.475,5.732-8.9,5.035-17.916,10.315-27.208,14.129-9.523,3.887-19.358,6.209-29.738,5.145-.884,6.294,4.775,11.379,8.557,16.927a15.759,15.759,0,0,1,3.2,8.03,12.781,12.781,0,0,1-.258,3.214c-.762,3.9-2.721,7.712-2.231,11.635a12.841,12.841,0,0,0,2.925,6.148C103.621,414.4,106.954,417.127,109.212,420.3Z" transform="translate(-82.045 -220.117)"/><path class="j" d="M307.257,414.71s11.917,9.338,24,14.312,4.081,22.818,4.081,22.818a23.283,23.283,0,0,1-21.766-8.555C304.6,432.089,307.257,414.71,307.257,414.71Z" transform="translate(34.649 -189.064)"/><path class="b" d="M306.73,782.081s30.486-.843,39.669-6.722,46.879-12.894,49.165-3.471,45.8,46.871,11.386,47.128S327,814.2,317.831,809.177,306.73,782.081,306.73,782.081Z" transform="translate(36.997 -110.726)"/><path class="q" d="M407.576,813.035c-34.418.257-79.964-4.815-89.133-9.778-6.979-3.826-9.768-17.538-10.693-23.857h-1.02s1.932,22.085,11.1,27.1,54.715,10.083,89.119,9.839c9.945-.073,13.373-3.251,13.182-7.957C418.758,811.214,414.963,812.986,407.576,813.035Z" transform="translate(36.997 -108.034)"/><path class="b" d="M890.4,728.949s-35.9-6.453-45.464-15.057S792.292,690.255,787.5,701s-64.605,47.3-23.929,53.776,95.717,8.555,107.689,4.3S890.4,728.949,890.4,728.949Z" transform="translate(279.789 -126.282)"/><path class="q" d="M763.572,745.006c40.689,6.441,95.717,8.555,107.689,4.29,9.1-3.275,15.441-19,17.944-26.326l1.2.232s-7.183,25.788-19.141,30.09-67,2.151-107.689-4.3c-11.74-1.858-15.1-6.233-13.835-11.757C750.743,740.875,754.838,743.649,763.572,745.006Z" transform="translate(279.791 -120.572)"/></svg>