<svg xmlns="http://www.w3.org/2000/svg" width="307.301" height="289.379" viewBox="0 0 307.301 289.379"><defs><style>.a{fill:#e6e6e6;}.b{opacity:0.1;}.c{fill:#3f3d56;}.d{fill:#f2f2f2;}.e{fill:#2f2e41;}.f{fill:#ffb8b8;}.g{fill:#3d547f;}</style></defs><g transform="translate(0 0.028)"><path class="a" d="M516.326,380.018v79.936L529.7,481.744l1.018,1.658h52.758l1.066-103.384Z" transform="translate(-293.223 -215.83)"/><path class="b" d="M516.326,380.018v79.936L529.7,481.744l.821-101.726Z" transform="translate(-293.223 -215.83)"/><path class="a" d="M131.915,375.084V455.02l-13.371,21.791-1.018,1.657H64.769L63.7,375.084Z" transform="translate(-36.177 -213.028)"/><path class="b" d="M202.914,375.084V455.02l-13.371,21.791-.821-101.727Z" transform="translate(-107.176 -213.028)"/><path class="a" d="M334.373,350.373v4.8H47.67v-6.928l26.645-13.856h236.61Z" transform="translate(-27.072 -189.915)"/><path class="b" d="M334.373,368.583v4.8H47.67v-6.928Z" transform="translate(-27.072 -208.125)"/><path class="c" d="M118.821,421.98h-12.79l-5.329-3.73h23.981Z" transform="translate(-57.189 -237.542)"/><path class="c" d="M118.821,457.746h-12.79l-5.329-3.73h23.981Z" transform="translate(-57.189 -257.854)"/><path class="c" d="M118.821,508.312h-12.79l-5.329-3.731h23.981Z" transform="translate(-57.189 -286.57)"/><path class="c" d="M118.821,558.877h-12.79l-5.329-3.73h23.981Z" transform="translate(-57.189 -315.286)"/><path class="c" d="M587.553,426.913h12.79l5.329-3.73H581.691Z" transform="translate(-330.344 -240.344)"/><path class="c" d="M587.553,462.679h12.79l5.329-3.73H581.691Z" transform="translate(-330.344 -260.655)"/><path class="c" d="M587.553,513.245h12.79l5.329-3.73H581.691Z" transform="translate(-330.344 -289.372)"/><path class="c" d="M587.553,563.81h12.79l5.329-3.73H581.691Z" transform="translate(-330.344 -318.088)"/><path class="c" d="M712.954,235.615H605.282a4.072,4.072,0,0,0-4.072,4.073v72.53a4.072,4.072,0,0,0,4.073,4.072h40.873l-1.531,9.777s-8.751,4.649-2.6,4.786,35.141,0,35.141,0,5.606,0-3.282-4.923l-1.44-9.64h40.509a4.072,4.072,0,0,0,4.072-4.073v-72.53a4.072,4.072,0,0,0-4.072-4.072Z" transform="translate(-447.036 -183.582)"/><rect class="d" width="108.022" height="60.438" transform="translate(158.071 56.34)"/><circle class="d" cx="0.684" cy="0.684" r="0.684" transform="translate(211.398 53.742)"/><circle class="d" cx="2.598" cy="2.598" r="2.598" transform="translate(209.484 124.572)"/><path class="c" d="M384.766,351.482v1.368H311.2v-1.094l.1-.274,1.813-4.922h70.146Z" transform="translate(-176.733 -196.829)"/><path class="c" d="M764.232,463.825c-.134.573-.64,1.177-1.783,1.749-4.1,2.051-12.443-.547-12.443-.547s-6.427-1.094-6.427-3.965a5.124,5.124,0,0,1,.563-.335c1.725-.912,7.443-3.164,17.582.1a4.229,4.229,0,0,1,1.927,1.263A2.017,2.017,0,0,1,764.232,463.825Z" transform="translate(-527.888 -310.51)"/><path class="b" d="M764.973,463.825c-5.021,1.924-9.5,2.067-14.089-1.123a10.086,10.086,0,0,0-6-1.976c1.725-.912,7.443-3.164,17.582.1a4.229,4.229,0,0,1,1.927,1.263,2.017,2.017,0,0,1,.58,1.74Z" transform="translate(-528.629 -310.51)"/><ellipse class="d" cx="1.778" cy="0.547" rx="1.778" ry="0.547" transform="translate(228.271 151.098)"/><path class="b" d="M384.766,357.952v1.368H311.2v-1.094l.1-.274Z" transform="translate(-176.733 -203.299)"/><path class="e" d="M320.994,115.143a3.7,3.7,0,0,0-2.144.479,5.592,5.592,0,0,0-1.45,1.914,22.9,22.9,0,0,1-6.237,7.045c-1.853,1.358-4.209,3.05-3.892,5.554a7.505,7.505,0,0,0,.9,2.344c1.71,3.451,6.375,6.118,5.916,10.056,1.7-2.844-.573-4.25,1.125-7.093.809-1.354,2.214-2.883,3.435-2.032.409.285.677.8,1.1,1.045,1.016.6,2.1-.544,3-1.351,3.1-2.784,7.511-2.055,11.37-1.187,1.822.41,3.823.947,4.9,2.688,1.416,2.289-1.345,4.762-2.043,7.35a1.41,1.41,0,0,0,1.514,1.755c1.158-.114,2.53-.208,2.6-.716,1.457.052,3.242-.113,3.866-1.63a6.377,6.377,0,0,0,.3-1.855c.229-2.548,1.311-4.873,2.027-7.3s1.028-5.267-.181-7.418a8.584,8.584,0,0,0-1.584-1.925C338.654,116.228,329.633,115.133,320.994,115.143Z" transform="translate(-280.09 -115.159)"/><path class="f" d="M319.23,186.95s1.492,12.435-3.979,13.43,4.974,17.906,4.974,17.906l24.87,2.984-5.969-19.9s-3.979-1.492-1.492-11.44S319.23,186.95,319.23,186.95Z" transform="translate(-283.739 -154.6)"/><path class="f" d="M47.028,569.318l1.99,27.357H59.463l-2.984-27.357Z" transform="translate(-26.707 -323.334)"/><path class="f" d="M224.3,448.293l1.492,22.88,11.441-4.974-4.477-18.9Z" transform="translate(-127.382 -254.039)"/><path class="e" d="M274.167,414.784s.5,28.849,3.482,38.3,2.487,9.948,1.99,11.44-.995.5-.995,2.984-.995,41.782,0,45.263-2.984,9.451,0,9.948,16.912,0,17.409-2.984-3.979-3.979-1.99-5.969,4.974-42.776,4.974-42.776L306,442.638l12.932-14.922H346.29l8.456,32.828S351.264,470,353.751,470s17.409,2.984,17.409-7.958-4.974-43.274-5.969-44.268.5-4.477-.995-5.969-18.9-11.938-25.367-13.927-15.537-4.357-15.537-4.357Z" transform="translate(-261.307 -273.255)"/><path class="e" d="M481.224,596.468s-7.461-2.487-10.943,4.974-1.99,9.451-1.99,9.451,11.44,3.979,13.43,1.99c.866-.866,3.614-1.166,6.444-1.23,4.309-.1,5.456-6.193,1.386-7.613q-.182-.064-.369-.11C485.2,602.934,481.224,596.468,481.224,596.468Z" transform="translate(-371.371 -388.286)"/><circle class="f" cx="14.922" cy="14.922" r="14.922" transform="translate(31.761 10.713)"/><path class="g" d="M291.207,229.863s24.373,4.974,30.341-2.984S330,249.261,330,249.261l2.984,31.834L328.512,298.5s-23.378,18.9-30.839,20.393-18.9,2.487-18.9,2.487,3.482-55.211,3.482-56.206S291.207,229.863,291.207,229.863Z" transform="translate(-263.922 -177.865)"/><path class="e" d="M284.64,212.082s-5.423-3.106-6.915-.122-15.419,10.445-16.911,10.445,2.984,41.284.995,46.258-11.44,41.284-5.969,44.269,1.492-2.984,6.964,4.477,32.331,7.461,33.823,4.477-11.938-25.367-9.451-46.258,6.466-49.74,2.984-53.719A34.6,34.6,0,0,1,284.64,212.082Z" transform="translate(-249.943 -169.413)"/><path class="e" d="M366.258,218.586l.693-2.384s20.7,6.861,21.69,11.338.5,35.813-2.984,38.3-8.456,6.466-4.974,12.435,7.461,12.435,10.445,12.932,8.456,3.979,6.964,7.461-19.4-2.984-19.4-2.984-11.938-8.953-11.44-22.88S366.258,218.586,366.258,218.586Z" transform="translate(-313.606 -172.558)"/><path class="f" d="M377.017,357.554l-11.938,22.383s-17.409,17.906-7.461,19.9,15.419-16.414,15.419-16.414l12.932-18.4Z" transform="translate(-306.956 -252.832)"/><path class="e" d="M326.037,124.183a3.387,3.387,0,0,0-1.745.338,4.067,4.067,0,0,0-1.18,1.353,17.185,17.185,0,0,1-5.077,4.979c-1.509.96-3.427,2.156-3.168,3.925a4.908,4.908,0,0,0,.735,1.657,13.033,13.033,0,0,1,1.584,8.124l4.148-6.029c.658-.957,1.8-2.038,2.8-1.436.333.2.551.562.9.739.827.421,1.707-.384,2.439-.955,2.524-1.968,6.114-1.452,9.256-.839,1.483.289,3.112.669,3.989,1.9,1.457,2.045-.064,5,.786,7.363a2.171,2.171,0,0,0,.9-1.433c1.186.037,2.639-.08,3.147-1.152a3.97,3.97,0,0,0,.244-1.311,24.253,24.253,0,0,1,1.65-5.158c.583-1.714.837-3.723-.147-5.243A6.345,6.345,0,0,0,346,129.643C340.414,124.95,333.07,124.175,326.037,124.183Z" transform="translate(-284.407 -120.294)"/><path class="e" d="M401.318,237.836l4.634,1.23s10.785,27.619,8.3,46.52-3.979,14.922-3.979,14.922-3.979-8.953-12.932-6.964Z" transform="translate(-331.257 -184.844)"/><path class="e" d="M282.29,737.511c-1.2,1.63-.959,3.96-2.021,5.682-.921,1.493-2.657,2.276-3.809,3.6a9.647,9.647,0,0,0-.979,1.409c-1.069,1.79-1.937,4.084-.885,5.884.847,1.448,2.626,2.013,4.258,2.4a15.626,15.626,0,0,0,6.293.505,6.267,6.267,0,0,0,4.87-3.635,14.036,14.036,0,0,1,.521-1.469c1.131-2.227,4.679-2.251,5.836-4.464.81-1.549.065-3.421-.679-5l-2.273-4.83c-.754-1.6-3.813-.681-5.407-1.065C285.935,736.023,283.786,735.472,282.29,737.511Z" transform="translate(-261.28 -467.786)"/><path class="f" d="M254.6,376l20.891,32.331s12.932,16.414,16.912,8.953-13.927-19.9-13.927-19.9l-13.43-24.87Z" transform="translate(-250.194 -261.331)"/><path class="e" d="M259.256,238.831l-3.979-.995s-7.958,2.487-9.948,12.932-.5,52.227,1.99,52.724,12.283-7.275,13.851-5.627-3.406-6.808-1.914-11.285S259.256,238.831,259.256,238.831Z" transform="translate(-244.406 -184.844)"/><g transform="translate(172.813 76.19)"><rect class="g" width="12.856" height="3.095" transform="translate(16.189)"/><rect class="g" width="4.523" height="3.095" transform="translate(69.041)"/><rect class="g" width="4.523" height="3.095" transform="translate(78.087)"/><rect class="g" width="30.711" height="3.095" transform="translate(33.568)"/><rect class="g" width="12.856" height="3.095" transform="translate(0 19.998)"/><rect class="g" width="4.523" height="3.095" transform="translate(52.852 19.998)"/><rect class="g" width="4.523" height="3.095" transform="translate(61.899 19.998)"/><rect class="g" width="30.711" height="3.095" transform="translate(17.379 19.998)"/><rect class="g" width="12.856" height="3.095" transform="translate(53.09 6.904)"/><rect class="g" width="12.856" height="3.095" transform="translate(70.469 6.904)"/><rect class="g" width="4.523" height="3.095" transform="translate(0 6.904)"/><rect class="g" width="4.523" height="3.095" transform="translate(9.047 6.904)"/><rect class="g" width="30.711" height="3.095" transform="translate(18.094 6.904)"/><rect class="g" width="12.856" height="3.095" transform="translate(26.426 13.57)"/><rect class="g" width="12.856" height="3.095" transform="translate(9.047 13.57)"/><rect class="g" width="4.523" height="3.095" transform="translate(0 13.57)"/><rect class="g" width="4.523" height="3.095" transform="translate(78.802 13.57)"/><rect class="g" width="30.711" height="3.095" transform="translate(43.567 13.57)"/></g></g></svg>