<svg xmlns="http://www.w3.org/2000/svg" xmlns:xlink="http://www.w3.org/1999/xlink" width="1207.06" height="713.05" viewBox="0 0 1207.06 713.05"><defs><style>.a,.c{fill:#6c63ff;}.a,.e{opacity:0.2;}.b,.e{fill:#f5f5f5;}.d{fill:none;stroke:#535461;stroke-miterlimit:10;stroke-width:2px;}.f{fill:url(#a);}.g{fill:#535461;}.h{fill:#fff;}.i{fill:url(#c);}.j{fill:url(#d);}.k{fill:#f7c4a7;}.l{opacity:0.05;}.m{fill:#575988;}.n{opacity:0.1;}.o{fill:#f3b5b7;}.p{fill:#dddbe2;}.q{fill:#fc6681;}</style><linearGradient id="a" x1="0.5" y1="1" x2="0.5" gradientUnits="objectBoundingBox"><stop offset="0" stop-color="gray" stop-opacity="0.251"/><stop offset="0.54" stop-color="gray" stop-opacity="0.122"/><stop offset="1" stop-color="gray" stop-opacity="0.102"/></linearGradient><linearGradient id="c" x1="0.5" y1="1" x2="0.5" y2="0" xlink:href="#a"/><linearGradient id="d" x1="0.5" y1="1" x2="0.5" y2="0" xlink:href="#a"/></defs><g transform="translate(0.001 0)"><path class="a" d="M258.4,144.082c-9.391-.268-19.015,0-27.823,2.7-23.966,7.364-35.326,31.458-31.633,52.279s18.886,38.961,34.65,55.541,32.845,32.973,41.49,52.791c4.311,9.892,6.327,20.972,1.946,30.852-6.758,15.228-27.135,23.733-46.7,25.5s-39.206-1.678-58.838-2.831c-8.237-.478-16.708-.536-24.467,1.689-8.517,2.423-15.613,7.375-22.137,12.537-25.458,20.25-45.836,47.875-42.538,76.9,3.728,32.891,36.981,58.885,73.4,72.831,12.059,4.66,24.817,8.366,35.431,14.96,27.963,17.4,34.243,50.018,31.458,78.808s-12.269,57.615-6.991,86.149c6.21,33.194,33.7,63.184,70.769,77.189,33.031,12.478,74.369,11.651,103.7-5.954,14.3-8.6,25.108-20.541,34.511-32.891a265.347,265.347,0,0,0,34.313-59.421c4.09-9.892,7.934-20.529,17.477-27.4,5.826-4.229,13.376-6.594,20.844-8.435,22.51-5.546,46.22-7.061,68.94-12s45.579-14.18,57.929-30.608c17.477-23.3,9.321-53.153,9.4-80.556.14-62.52,45.568-118.48,62.334-179.428,5.476-19.912,7.515-41.944-4.719-59.712-8.307-12.059-22.324-20.762-37.051-27.485-32.4-14.785-69.231-21.368-105.454-27.776-50.345-8.9-111.478-10.055-150.5-38.857C360.7,163.807,309.465,144.082,258.4,144.082Z" transform="translate(-82 -144)"/><ellipse class="b" cx="541.778" cy="145.08" rx="541.778" ry="145.08" transform="translate(123.502 422.89)"/><path class="c" d="M1047.482,330.86s-41.746,41.746-18.176,103.7S988.9,599.524,988.9,599.524s.688-.1,1.957-.326c85.741-15.146,128.349-113.2,80.673-186.057C1053.808,386.063,1039.256,354.325,1047.482,330.86Z" transform="translate(67.742 -113.147)"/><path class="d" d="M1047.482,330.86s-23.57,51.172,0,92.918,4.043,158.91-58.582,175.746" transform="translate(67.742 -113.147)"/><path class="c" d="M1123.347,475.864s-47.642-7.585-51.976,35.1-91.6,48.609-91.6,48.609l1.631,1.084c72.051,47.292,140.979,30.13,130.493-32.623C1108.084,504.642,1108.4,481.188,1123.347,475.864Z" transform="translate(66.235 -89.291)"/><path class="e" d="M1123.347,475.864s-47.642-7.585-51.976,35.1-91.6,48.609-91.6,48.609l1.631,1.084c72.051,47.292,140.979,30.13,130.493-32.623C1108.084,504.642,1108.4,481.188,1123.347,475.864Z" transform="translate(66.235 -89.291)"/><path class="d" d="M1123.347,475.79s-36.981,8.156-33.94,41.734S1034.5,591.451,979.77,559.468" transform="translate(66.235 -89.217)"/><path class="f" d="M1119.381,617.357h-74.847a24.956,24.956,0,0,0,2.61-11.15V265.342a25.062,25.062,0,0,0-25.062-25.062H442.625a25.062,25.062,0,0,0-25.073,25.062V606.219a24.956,24.956,0,0,0,2.61,11.15H342.67A6.629,6.629,0,0,0,336.04,624v5.348a37.074,37.074,0,0,0,37.074,37.039h715.823a37.074,37.074,0,0,0,37.074-37.074v-5.348a6.63,6.63,0,0,0-6.63-6.606ZM658.124,638.563l-6.385-7.282H811.034l-7.107,7.294Z" transform="translate(-40.054 -128.103)"/><rect class="g" width="615.32" height="382.146" rx="23.26" transform="translate(384.616 117.001)"/><rect class="h" width="588.115" height="312.192" transform="translate(397.56 172.705)"/><circle class="h" cx="5.185" cy="5.185" r="5.185" transform="translate(686.439 140.315)"/><path class="g" d="M821.217,560.73,801,581.457H658.509L640.252,560.73H350.208a6.478,6.478,0,0,0-6.478,6.478v5.22a36.235,36.235,0,0,0,36.235,36.235h699.593a36.235,36.235,0,0,0,36.235-36.235v-5.22a6.478,6.478,0,0,0-6.478-6.478Z" transform="translate(-38.784 -75.192)"/><path class="f" d="M618.792,301.65H370.7a22.731,22.731,0,0,0-22.755,22.7V668.055a22.731,22.731,0,0,0,22.755,22.7H618.792a22.731,22.731,0,0,0,22.755-22.7V324.346a22.731,22.731,0,0,0-22.755-22.7Z" transform="translate(-38.088 -117.97)"/><rect class="g" width="286.618" height="380.992" rx="20" transform="translate(313.346 188.341)"/><rect class="h" width="257.49" height="308.918" transform="translate(327.91 224.378)"/><circle class="h" cx="3.495" cy="3.495" r="3.495" transform="translate(451.995 202.322)"/><circle class="h" cx="10.486" cy="10.486" r="10.486" transform="translate(445.004 540.205)"/><path class="i" d="M437.95,401.65H310.568a12.6,12.6,0,0,0-12.618,12.572V693.173a12.6,12.6,0,0,0,12.618,12.572H437.95a12.6,12.6,0,0,0,12.618-12.572V414.222A12.6,12.6,0,0,0,437.95,401.65Z" transform="translate(-46.343 -101.458)"/><rect class="g" width="150.3" height="300.599" rx="11" transform="translate(252.76 302.522)"/><rect class="h" width="128.163" height="244.674" transform="translate(263.829 330.485)"/><circle class="h" cx="1.165" cy="1.165" r="1.165" transform="translate(311.598 315.338)"/><rect class="h" width="25.633" height="2.33" rx="1" transform="translate(318.589 315.338)"/><circle class="h" cx="8.156" cy="8.156" r="8.156" transform="translate(319.172 578.654)"/><path class="d" d="M286.592,703.974s-15.449-52.43,2.9-91.042a82.828,82.828,0,0,0,6.734-51.976,139.314,139.314,0,0,0-7.352-24.386" transform="translate(-49.223 -79.181)"/><path class="c" d="M300.752,517.281c0,6.431-11.651,25.062-11.651,25.062S277.45,523.7,277.45,517.281a11.651,11.651,0,0,1,23.3,0Z" transform="translate(-49.728 -84.29)"/><path class="c" d="M317.315,548.8c-3.5,5.394-23.4,14.715-23.4,14.715s.361-21.974,3.857-27.369A11.651,11.651,0,1,1,317.315,548.8Z" transform="translate(-47.009 -80.204)"/><path class="c" d="M317.155,601.491c-5.744,2.889-27.625.9-27.625.9s11.406-18.782,17.139-21.671A11.651,11.651,0,0,1,317.155,601.5Z" transform="translate(-47.734 -72.063)"/><path class="c" d="M307.637,640.719c-5.173,3.822-27.077,5.546-27.077,5.546s8.063-20.436,13.236-24.258a11.651,11.651,0,0,1,13.842,18.712Z" transform="translate(-49.215 -65.398)"/><path class="c" d="M273.468,562.777c4.66,4.474,26.087,9.123,26.087,9.123s-5.255-21.333-9.869-25.807a11.651,11.651,0,1,0-16.218,16.7Z" transform="translate(-51.036 -78.217)"/><path class="c" d="M263.421,609.244c5.744,2.889,27.625.9,27.625.9S279.64,591.36,273.907,588.47a11.651,11.651,0,1,0-10.486,20.786Z" transform="translate(-53.176 -70.857)"/><path class="c" d="M259.056,655.32c5.173,3.822,27.077,5.546,27.077,5.546s-8.063-20.436-13.236-24.258a11.651,11.651,0,0,0-13.842,18.712Z" transform="translate(-53.471 -62.987)"/><path class="j" d="M1152.071,562.13c-12.9-15.647-28.522-33.625-26.332-54.446,1.771-16.859-2.47-32.448-1.631-49.366,1.165-24.036-3.658-42.853-20.972-58.256-10.113-9.006-27.019-16.079-32.052-14.273-9.973,3.565-20.856,2.2-31.12,4.66-7.795,1.818-12.979,4.66-16.2,8.156-6.466,5.826-6.571,13.981-3.624,22.661a38.274,38.274,0,0,0,18.91,53.688c-7.189,3.006-13.4,9.927-15.822,23.978a163.918,163.918,0,0,1-7.608,28.324,46.049,46.049,0,0,1-4.66,1.876c.349.14.711.233,1.06.361-.757.291-1.5.583-2.33.839a24.71,24.71,0,0,0,4.253,1.235c-9.321,23.547-20.972,38.134-20.972,38.134s-21.729,4.8-30.177-3.6c0,0,1.375,1.608,3.239,4.02-8.261-3.425-21.823-9.018-33.416-13.62-8.412-3.344-10.568,0-10.486,4.66a15.518,15.518,0,0,0-5.826,1.957,56.7,56.7,0,0,0-7.795-4.194c-4.824-1.165-20.518-9.6-36.212,19.189-9.135,16.743-32.553,47.3-50.554,69.907-35.012,16.1-80.591,36.491-97.532,41.618H713.359c-1.421-2.33-2.412-3.8-2.412-3.8l-.839.559-.361-.559S688.425,700.6,666.778,700.72a40.78,40.78,0,0,1-9.134-1.165c-9.95-2.505-16.964-3.623-21.974-3.5-5.93-.1-9.321,1.3-11.372,3.961h0a10.39,10.39,0,0,0-.757,1.1h0a12.893,12.893,0,0,0-.629,1.165h0c-.186.419-.373.862-.536,1.317a2.7,2.7,0,0,0,.676,2.272,12.132,12.132,0,0,0,.944,1.165l.606.652c2.726,2.82,7.69,6.56,13.865,10.731,1.783,1.165,3.67,2.447,5.639,3.717l3.74,2.33,3.344,2.086,1.34.827,1.491.909,2.668,1.62,1.585.955,2.994,1.783,2.423,1.433c6.338,3.74,12.653,7.364,18.351,10.579l3.985,2.377.384.21,2.563,1.433,4.427,2.458,3.041,1.678,1.421.781,1.526.839.3.163,2.656,1.445a3.845,3.845,0,0,0,3.1-.839c.769-3.262,2.645-10.253,4.66-10.789s10.742-15.787,13.2-25.994h23.559a103.825,103.825,0,0,0,13.8-2.12c-6.082,4.334-12.106,7.061-16.789,5.9-9.9-2.458-19.283,3.577-20.226,9.531a1.532,1.532,0,0,1-.117.373c-.035.128-.058.245-.082.361s-.07.291-.093.443a1.987,1.987,0,0,0,0,.373v1.608a2.345,2.345,0,0,0,.117.478c.047.163,0,.21.082.3a5.843,5.843,0,0,0,.256.618l.058.151a6.271,6.271,0,0,0,.443.734l.186.245a4.918,4.918,0,0,0,.385.478l.268.268c.14.14.291.28.443.419l.326.268.524.385.385.256.629.373.419.221.792.373.4.175c.419.175.862.338,1.34.489.757.245,1.654.5,2.668.757l1.014.245,1.48.338.781.175q1.515.326,3.216.652l1.573.291,1.282.233,2.948.513c1.841.315,3.763.629,5.826.932l5.08.769,6.618.944,1.468.2,2.33.326,3.414.454,2.33.3h0l6.047.769,1.887.233,3.81.466c5.01.606,9.857,1.165,14.319,1.666l5.161.583,2.61.291,1.165.116,3.122.338,1.736.186,2.144.221,3.018.315h.326l1.934.2h0a1.759,1.759,0,0,0,1.946-1.713h0v-.2a1.7,1.7,0,0,0,.28-.909,39.612,39.612,0,0,1,1.084-8.529c.128-.478.28-.967.443-1.456l.186-.559c.21-.594.419-1.165.664-1.806a12.97,12.97,0,0,0,.454-1.328,1.636,1.636,0,0,1,.128-.431c.047-.151.116-.478.163-.722,2.423-8.284-.5-23.733-1.34-29.8a32.352,32.352,0,0,0-1.328-5.709,2.336,2.336,0,0,0,.454,0,13.739,13.739,0,0,0,3.5-1.9c17.8-6.35,32.81-13.608,37.552-20.879a32.518,32.518,0,0,1,22.929,2.4c9.216,4.579,78.936,27.334,111.4,37.843,5.826,5.022,10.393,7.958,12.921,7.736,0,0,41.327,6.688,57.941-6.362,1.48,1.025,2.412,1.573,2.412,1.573s24.141-11.989,27.765-27.59c1.165-5.057,2.225-12.513,3.309-20.762a30.188,30.188,0,0,0,8.761-21.217c.758-26.192,10.906-56.112,18.432-82.723,9.134.722,12.665-1,21.042-5.138l-.373-.478C1151.022,562.62,1151.547,562.386,1152.071,562.13Zm-138.4,39.229-4.66-1.55a38.442,38.442,0,0,0,4.02-6.688ZM987.7,612.382l27.963,16.778.245,3.414a24.471,24.471,0,0,0,.233,7.806c-12.327-10.952-26.751-24.246-28.452-28.01Zm-11.418-24.467c-3.053-1.258-5.581-2.4-7.317-3.344,2.33.163,4.544.3,6.478.408a14.484,14.484,0,0,1,.839,2.936Zm-74.894,27.345s4.824-10.789,15.694,7.2c1.689,2.8,4.8,7.247,8.913,12.758l-31.645-4.229c3.728-5.779,6.233-11.15,7.037-15.717Z" transform="translate(7.218 -104.124)"/><path class="k" d="M928.547,548s-22.137-9.321-39.614-16.312S881.942,548,881.942,548s29.128,8.156,29.128,9.321,24.467,2.33,24.467,2.33Z" transform="translate(49.567 -80.204)"/><path class="l" d="M928.547,548s-22.137-9.321-39.614-16.312S881.942,548,881.942,548s29.128,8.156,29.128,9.321,24.467,2.33,24.467,2.33Z" transform="translate(49.567 -80.204)"/><path class="m" d="M1017.36,467.264s-39.614-20.972-46.6,19.807-29.128,68.742-29.128,68.742-20.972,4.66-29.128-3.5c0,0,19.807,23.3,10.486,25.633,0,0,20.972,15.146,30.293,10.486s16.312-36.119,19.807-44.274S989.4,464.934,1017.36,467.264Z" transform="translate(55.127 -91.515)"/><path class="n" d="M1017.36,467.264s-39.614-20.972-46.6,19.807-29.128,68.742-29.128,68.742-20.972,4.66-29.128-3.5c0,0,19.807,23.3,10.486,25.633,0,0,20.972,15.146,30.293,10.486s16.312-36.119,19.807-44.274S989.4,464.934,1017.36,467.264Z" transform="translate(55.127 -91.515)"/><path class="k" d="M983.5,458.816s24.467,27.963,25.633,51.265,27.963-24.467,30.293-25.633-23.3-40.779-25.633-53.6S983.5,458.816,983.5,458.816Z" transform="translate(66.851 -97.048)"/><path class="k" d="M918.188,320.75,902.75,334.731l7.282,29.419,19.807-18.642-2.33-18.642Z" transform="translate(149.057 52.96)"/><path class="k" d="M643.3,498.5H616.5l10.486,25.632,25.633-6.991Z" transform="translate(101.793 82.309)"/><path class="n" d="M715.787,639.33s-27.753,19.329-51.463,13.317-30.153-3.763-32.914,4c-2.552,7.142,66.225,44.915,77.189,50.881a1.259,1.259,0,0,0,1.829-.816c.746-3.169,2.552-9.962,4.486-10.486,2.517-.676,13.981-22.137,13.352-30.573S715.787,639.33,715.787,639.33Z" transform="translate(8.704 -62.214)"/><path class="o" d="M714.787,639.33s-27.753,19.329-51.463,13.317-30.153-3.763-32.914,4c-2.552,7.142,66.225,44.915,77.189,50.881a1.258,1.258,0,0,0,1.829-.816c.746-3.169,2.552-9.962,4.486-10.486,2.517-.676,13.981-22.137,13.352-30.573S714.787,639.33,714.787,639.33Z" transform="translate(8.539 -62.214)"/><path class="m" d="M930.707,600.986,852.644,590.5s-127,60.586-142.144,61.751l3.5,26.8h23.3c9.321,0,100.2-19.807,113.016-39.614a31.2,31.2,0,0,1,22.137,2.33c11.651,5.826,123.5,41.944,123.5,41.944Z" transform="translate(21.774 -70.277)"/><path class="n" d="M930.707,600.986,852.644,590.5s-127,60.586-142.144,61.751l3.5,26.8h23.3c9.321,0,100.2-19.807,113.016-39.614a31.2,31.2,0,0,1,22.137,2.33c11.651,5.826,123.5,41.944,123.5,41.944Z" transform="translate(21.774 -70.277)"/><path class="k" d="M700.316,486.5,687.5,502.812l12.816,6.991,18.642-13.981Z" transform="translate(113.516 80.328)"/><path class="m" d="M1003.7,628.157s-41.944-35.909-44.845-42.422-71.666-50.787-76.327-51.953-19.807-9.321-34.953,18.642S776.5,647.964,776.5,647.964s17.477,24.467,23.3,23.3,71.072-55.925,75.732-82.723c0,0,4.66-10.486,15.146,6.991s78.063,101.365,90.879,100.2c0,0,50.1,8.156,60.586-11.651S1003.7,628.157,1003.7,628.157Z" transform="translate(32.672 -79.971)"/><path class="p" d="M998.027,468.248s-14.564,6.408-15.729,33.206-26.8,72.237-26.8,72.237l2.33,53.6s27.963,27.963,30.293,45.439,22.137,29.128,22.137,29.128,23.3-11.651,26.8-26.8,5.826-52.43,11.651-66.411,2.33-101.365,2.33-101.365l-17.477-30.293-9.321-10.486-24.467,27.963S986.375,476.4,998.027,468.248Z" transform="translate(62.227 -90.751)"/><path class="n" d="M963.986,609.583s-3.5-41.944,6.991-51.265L991.949,498.9s7.573-28.545,6.408-30.876-27.38,22.72-27.38,22.72L953.5,552.492l4.66,65.246Z" transform="translate(61.897 -90.525)"/><path class="m" d="M962.986,609.665s-3.5-41.944,6.991-51.265l20.972-59.421s8.156-29.128,6.991-31.458-27.963,23.3-27.963,23.3L952.5,552.575l4.661,65.246Z" transform="translate(61.732 -90.607)"/><path class="k" d="M985.1,579.821s-58.256-18.642-61.751-23.3-40.779-34.953-53.6-13.981,47.77,26.8,47.77,26.8l61.751,37.284Z" transform="translate(47.775 -79.404)"/><path class="n" d="M793.981,644.849l-17.244-3.1S748.5,677.927,733.78,674.257s-28.254,12.164-12.711,17.244c14.04,4.591,74.672,11.01,86.218,12.2a1.7,1.7,0,0,0,1.876-1.654,37.1,37.1,0,0,1,2.68-13.131c3.111-7.631,0-24.025-.862-30.293a30.1,30.1,0,0,0-3.391-10.486Z" transform="translate(22.38 -61.814)"/><path class="o" d="M793.727,645.819l-17.244-3.1s-28.242,36.177-42.934,32.518-28.254,12.164-12.711,17.244c14.04,4.591,74.672,11.01,86.218,12.2a1.7,1.7,0,0,0,1.876-1.654,37.1,37.1,0,0,1,2.575-13.119c3.111-7.631,0-24.025-.862-30.293a30.1,30.1,0,0,0-3.39-10.486Z" transform="translate(22.342 -61.654)"/><circle class="n" cx="37" cy="37" r="37" transform="translate(1021.999 301)"/><ellipse class="k" cx="37.5" cy="37" rx="37.5" ry="37" transform="translate(1017.999 301)"/><path class="m" d="M1026.692,465.5s44.274,15.146,44.274,46.6-24.468,81.558-25.633,122.337-65.246,34.953-65.246,34.953-9.321-137.483,0-147.969S1031.352,470.16,1026.692,465.5Z" transform="translate(65.603 -90.916)"/><path class="n" d="M1021.794,525.825s-16.312,72.237-54.76,59.421c0,0-19.807,29.128-5.826,41.944,0,0,33.788,8.156,55.925-13.981s38.449-30.293,41.944-57.091,5.826-64.081-5.826-60.586S1021.794,525.825,1021.794,525.825Z" transform="translate(62.345 -85.995)"/><path class="m" d="M1022.794,524.825s-16.312,72.237-54.76,59.421c0,0-19.807,29.128-5.826,41.944,0,0,33.788,8.156,55.925-13.981s38.449-30.293,41.944-57.091,5.826-64.081-5.826-60.586S1022.794,524.825,1022.794,524.825Z" transform="translate(62.51 -86.16)"/><path class="p" d="M798.814,680a1.07,1.07,0,0,1-.1.326,34.107,34.107,0,0,0-1.829,6.163c.28-.909.606-1.841.979-2.773A16.914,16.914,0,0,0,798.814,680Z" transform="translate(36.037 -55.499)"/><path class="p" d="M721.689,683.486c-4.8-1.573-6.816-4.159-6.9-6.886-1.981,3.8-.734,8.063,6.047,10.276,14.04,4.591,74.684,11.01,86.218,12.2a1.7,1.7,0,0,0,1.876-1.666h0a1.713,1.713,0,0,0-1.526-1.736C794.753,694.321,735.542,688.006,721.689,683.486Z" transform="translate(22.342 -56.06)"/><path class="p" d="M632.013,652.78a14.355,14.355,0,0,1,1.165-2.47,11.36,11.36,0,0,0-2.738,4.521c-2.552,7.142,66.225,44.915,77.189,50.881a1.258,1.258,0,0,0,1.829-.827h0a1.258,1.258,0,0,0-.618-1.4C696.723,696.856,629.5,659.841,632.013,652.78Z" transform="translate(8.544 -60.401)"/><path class="p" d="M703.694,686.5c-.618.163-1.223.99-1.794,2.12l.186-.07c.513-.14,1.386-1.165,2.447-2.68a2.262,2.262,0,0,1-.839.629Z" transform="translate(20.354 -54.53)"/><path class="n" d="M988.885,474.107c-3.286,7.247-3.973,15.414-6.385,23.011-4.789,15.065-16.8,27.532-31.19,32.344,12.106,4.824,26.39-1.072,35.746-10.859s14.844-22.813,20.1-35.489c13.585,9.134,11.931,30.13,16.5,46.476a51.544,51.544,0,0,0,27.438,32.8,49.132,49.132,0,0,0,42.026-.851c-12.455-15.147-30.188-36.037-28.079-56.263,1.713-16.381-10.043-28.895-9.239-45.335,1.165-23.3-7.76-35.14-24.468-50.1-9.764-8.75,5.6-21.089-6.991-17.477-4.952,1.421-10.171-3.88-15.03-2.132-9.624,3.5-20.133,2.144-30.037,4.474C927.8,406.8,993.685,463.528,988.885,474.107Z" transform="translate(61.536 -103.403)"/><path class="q" d="M989.885,473.158c-3.286,7.247-3.973,15.414-6.385,23.011-4.789,15.065-16.8,27.532-31.19,32.344,12.105,4.824,26.39-1.072,35.746-10.859s14.844-22.813,20.1-35.489c13.585,9.134,11.931,30.13,16.5,46.476a51.545,51.545,0,0,0,27.438,32.8,49.133,49.133,0,0,0,42.026-.85c-12.455-15.147-29.023-32.542-26.914-52.768,1.713-16.381-.839-33.217,0-49.646,1.165-23.3-10.265-45.812-26.984-60.772-9.764-8.75-25.015-9.869-29.885-8.156-9.624,3.5-20.133,2.144-30.037,4.474C928.8,405.849,994.685,462.578,989.885,473.158Z" transform="translate(61.701 -103.618)"/></g></svg>