<svg xmlns="http://www.w3.org/2000/svg" width="1255.948" height="690.254" viewBox="0 0 1255.948 690.254"><defs><style>.a{fill:#e6e6e6;}.b{fill:#fff;}.c{fill:#575a89;}.d{fill:#3f3d56;}.e{fill:#6c63ff;}.f{fill:#a0616a;}.g{fill:#2f2e41;}.h{fill:#ffb8b8;}.i{fill:#d0cde1;}.j{opacity:0.2;}</style></defs><rect class="a" width="992.533" height="635.662" transform="translate(258.118 0.563)"/><rect class="b" width="358.317" height="368.192" transform="translate(345.885 85.922)"/><rect class="b" width="358.317" height="447.191" transform="translate(838.219 93.062)"/><ellipse class="a" cx="64.187" cy="9.17" rx="64.187" ry="9.17" transform="translate(1127.574 664.103)"/><ellipse class="a" cx="64.187" cy="9.17" rx="64.187" ry="9.17" transform="translate(485.844 664.308)"/><ellipse class="a" cx="147.312" cy="7.053" rx="147.312" ry="7.053" transform="translate(0 657.254)"/><rect class="c" width="992.533" height="42.166" transform="translate(257.695)"/><circle class="a" cx="7.815" cy="7.815" r="7.815" transform="translate(281.214 13.743)"/><circle class="a" cx="7.815" cy="7.815" r="7.815" transform="translate(310.88 13.743)"/><circle class="a" cx="7.815" cy="7.815" r="7.815" transform="translate(340.544 13.743)"/><path class="d" d="M1004.382,383.68h-2.171V324.217A34.415,34.415,0,0,0,967.8,289.8H841.819A34.415,34.415,0,0,0,807.4,324.217V650.429a34.415,34.415,0,0,0,34.415,34.415H967.8a34.415,34.415,0,0,0,34.415-34.415V426h2.171Z" transform="translate(113.154 -170.666)"/><path class="b" d="M965.421,296.15H948.977a12.21,12.21,0,0,1-11.305,16.822H865.5A12.21,12.21,0,0,1,854.2,296.15h-15.36a25.7,25.7,0,0,0-25.7,25.7V647.584a25.7,25.7,0,0,0,25.7,25.7H965.421a25.7,25.7,0,0,0,25.7-25.7V321.85a25.7,25.7,0,0,0-25.7-25.7Z" transform="translate(115.508 -168.059)"/><rect class="a" width="249.05" height="11.36" transform="translate(400.765 318.502)"/><rect class="c" width="249.05" height="11.36" transform="translate(400.765 355.18)"/><rect class="a" width="249.05" height="11.36" transform="translate(400.765 391.858)"/><rect class="a" width="145.392" height="11.36" transform="translate(946.351 343.288)"/><rect class="a" width="145.392" height="11.36" transform="translate(946.351 378.555)"/><rect class="a" width="145.392" height="11.36" transform="translate(946.351 413.823)"/><rect class="d" width="24.232" height="24.232" transform="translate(1106.946 565.991) rotate(90)"/><rect class="e" width="24.232" height="24.232" transform="translate(1067.905 565.991) rotate(90)"/><rect class="d" width="24.232" height="24.232" transform="translate(1028.865 565.991) rotate(90)"/><rect class="d" width="24.232" height="24.232" transform="translate(989.825 565.991) rotate(90)"/><rect class="d" width="24.232" height="24.232" transform="translate(950.784 565.992) rotate(90)"/><rect class="c" width="80.773" height="80.773" transform="translate(977.25 196.073)"/><path class="f" d="M505.976,489.77l-1.046,2.091-3.137-15.683s-4.182-16.728,4.182-16.728,6.273,16.728,6.273,16.728v11.5Z" transform="translate(-12.789 -100.992)"/><path class="f" d="M603.59,488.252l1.046,2.091,3.137-15.683s4.182-16.728-4.182-16.728-6.273,16.728-6.273,16.728v11.5Z" transform="translate(26.776 -101.615)"/><path class="g" d="M385.867,358.94l-12.545,77.368,6.272,75.276,14.637-6.272-2.091-56.459L406.778,403.9l3.136,53.322-6.272,55.412,18.819,2.092L436.053,400.76l-1.045-38.684Z" transform="translate(153.323 147.416)"/><path class="g" d="M539.195,666.129l-7.319,11.5v25.7a3.116,3.116,0,0,0,2.618,3.076c3.588.589,9.834,1.007,12.019-2.635,3.137-5.228,1.046-16.728,1.046-16.728s4.182-8.364,2.091-14.637-4.182-7.319-4.182-7.319Z" transform="translate(-0.005 -16.538)"/><path class="g" d="M562.951,673.541l2.091,3.136s3.137,3.137,1.046,5.228a40.87,40.87,0,0,0-4.182,5.228s-11.5,3.136-11.5-1.046V672.5Z" transform="translate(7.605 -13.494)"/><circle class="f" cx="13.859" cy="13.859" r="13.859" transform="translate(552.928 393.544)"/><path class="f" d="M395.489,291.867l-1.045,19.865,18.819,1.045-1.045-19.865Z" transform="translate(161.998 119.869)"/><path class="c" d="M578.792,515.212l-2.968-7.25s-13.76-5.3-17.943-.068l-2.091,6.273-16.728-4.182-9.41,20.91,8.364,59.595s21.956,28.229,51.23,1.046l8.364-56.458-6.272-21.956Z" transform="translate(-0.918 -82.043)"/><path class="c" d="M417.049,324.411l2.091-4.183,20.911-12.547,12.761-37.774,9.875,4.232L451.55,319.183l-30.32,28.228Z" transform="translate(171.281 110.85)"/><path class="c" d="M398.175,318.534l-2.091-2.091-21.956-13.592-15.683-31.365L345.9,275.667l13.591,38.684,33.458,27.184Z" transform="translate(142.061 111.499)"/><path class="g" d="M571.167,480.678l2.266-1.133-3.4-1.133V477.28s-16.995-6.8-19.261,4.532a22.773,22.773,0,0,0,0,27.192v3.4l18.128,2.266,2.266-6.8S582.5,487.476,571.167,480.678Z" transform="translate(5.907 -94.5)"/><path class="h" d="M274.685,565.16l-4.028,2.014s-16.113,7.385-11.413,11.413,17.455-4.028,17.455-4.028l2.685-3.357Z" transform="translate(-112.327 -57.577)"/><path class="g" d="M215.744,359.1l-12.451,83.58-18.8,58.407-10.07-4.7,9.4-79.891L156.969,393.67l2.014-33.568Z" transform="translate(64.467 147.481)"/><path class="g" d="M324.953,663.789s11.413-6.042,12.084,2.685l-1.343,8.728s4.028,15.441-9.4,12.084-4.028-13.427-4.028-13.427Z" transform="translate(-87.404 -17.907)"/><path class="g" d="M320.546,583.72l-8.728,7.385s0,45.652,6.042,52.366,44.309,40.953,45.652,42.3,7.385-13.427,7.385-13.427l-36.253-42.3,2.685-26.183Z" transform="translate(-90.382 -49.954)"/><path class="g" d="M352.6,645.185s10.742-2.014,10.742,5.371a162.557,162.557,0,0,0,1.343,17.455s2.685,23.5-6.042,20.141S346.559,661.3,346.559,661.3a10,10,0,0,1,4.028-4.7C353.273,655.255,352.6,645.185,352.6,645.185Z" transform="translate(-76.114 -24.814)"/><path class="h" d="M177.866,288.424l2.014,24.841-5.371,9.4-14.77-14.1-1.343-18.8Z" transform="translate(65.053 118.455)"/><circle class="h" cx="16.113" cy="16.113" r="16.113" transform="translate(214.723 382.71)"/><path class="i" d="M174.255,311.225l6.714-19.469,12.084,13.427,22.155,85.261-16.784,10.071-7.384-10.742-1.343,14.1-32.9-6.714L154.114,307.2l6.709-9.45Z" transform="translate(63.294 119.824)"/><path class="g" d="M170.133,404.8,166.1,296.039l-8.728,6.714-16.113,10.741,10.742,38.268,3.356,40.281Z" transform="translate(58.017 121.583)"/><path class="g" d="M157.692,309.083l-4.7-.672-13.427,39.61L112.71,381.591l10.071,10.741,30.882-30.212,11.414-24.84Z" transform="translate(46.29 126.664)"/><path class="h" d="M352.094,565.595,351.178,570s-4.191,17.222,1.883,16.03,7.657-16.195,7.657-16.195l-.97-4.188Z" transform="translate(-74.796 -57.398)"/><path class="g" d="M172.564,290.983l33.274,13.174-4.028,40.281,8.056,44.31-8.056,8.727L172.022,296.689Z" transform="translate(70.649 119.506)"/><path class="g" d="M324.779,469.569l4.73-2.365v2.365l3.153-1.576v3.941s11.824,8.671,9.459,18.918-2.365,11.036-2.365,11.036-2.99-19.487-14.813-16.335-12.776,3.722-15.928,12.393l-.855,3.719S294.825,471.145,324.779,469.569Z" transform="translate(-93.1 -97.807)"/><path class="g" d="M194.226,300.322H199.6l8.728,46.995v40.953l-10.741-2.014-8.728-61.765Z" transform="translate(77.562 123.342)"/><rect class="c" width="197.951" height="137.559" transform="translate(4.987 523.047)"/><path class="b" d="M240.755,595.148a41.939,41.939,0,1,0,41.939,41.939,41.939,41.939,0,0,0-41.939-41.939Zm0,12.582a12.582,12.582,0,1,1-12.582,12.582,12.582,12.582,0,0,1,12.582-12.582Zm0,60.569a30.553,30.553,0,0,1-25.163-13.429c.2-8.388,16.775-13,25.163-13s24.962,4.617,25.163,13.005A30.6,30.6,0,0,1,240.755,668.3Z" transform="translate(-136.792 -45.261)"/><rect class="a" width="248.283" height="142.481" transform="translate(400.902 128.243)"/><path class="h" d="M965.137,503.431l1.15-7.42s6.705-15.243,1.405-16.064-9.721,13.69-9.721,13.69l1.939,15.5Z" transform="translate(174.992 -92.588)"/><path class="c" d="M866.124,334.18l-47.373-9.515-5.5-34.5L799.3,289.084l.681,44.61,41.16,21.579Z" transform="translate(328.272 118.726)"/><path class="j" d="M866.124,334.18l-47.373-9.515-5.5-34.5L799.3,289.084l.681,44.61,41.16,21.579Z" transform="translate(328.272 118.726)"/><rect class="c" width="145.392" height="11.36" transform="translate(1210.911 401.716) rotate(180)"/><path class="h" d="M958.985,501.651l.009-7.509s4.311-16.085-1.052-16.092-7.528,15.008-7.528,15.008l4.272,15.023Z" transform="translate(171.888 -93.353)"/><path class="g" d="M1006.458,522.7l6.5-1.584a16.733,16.733,0,0,0,16.423-20.047h0a21.872,21.872,0,0,0-21.844-21.9h0a21.872,21.872,0,0,0-21.9,21.844h0a17.381,17.381,0,0,0,20.818,21.687Z" transform="translate(186.078 -92.894)"/><path class="g" d="M818.254,383.949l5.292,57.932,9.581,56.864,16.09.02-2.075-55.782-8.5-67.589Z" transform="translate(336.056 154.173)"/><path class="g" d="M992.474,665.9l-10.735,6.423s-17.166,2.124-13.954,7.491,40.759,2.2,40.762.051-1.055-13.946-3.2-13.949Z" transform="translate(178.858 -16.201)"/><path class="g" d="M1018.723,586.479s-.3,8.282-7.827,21.145l1.023,39.69,38.554,49.392-13.96,11.782L989.384,654.8,977.665,590.42l15.036-15Z" transform="translate(183.08 -53.363)"/><path class="g" d="M1031.511,661.394s12.869,2.161,10.718,7.522-7.547,30.025-21.487,26.79c0,0-6.436-.008-4.285-4.3a77.618,77.618,0,0,1,4.3-7.5l.017-13.945Z" transform="translate(198.831 -18.054)"/><circle class="h" cx="16.09" cy="16.09" r="16.09" transform="translate(1169.482 398.713)"/><path class="h" d="M850.731,301.657l-.023,18.235-17.162-.021,2.168-18.232Z" transform="translate(342.336 123.883)"/><path class="c" d="M991.018,515.719l5.2-1.277,16.253,1.3s8.571,8.592,7.5,10.736-6.5,54.7-6.5,54.7l9.607,37.556-34.328,2.1-17.16-2.167,3.3-67.575s-7.486-18.245,2.175-23.6a42.259,42.259,0,0,0,13.96-11.782Z" transform="translate(180.581 -78.407)"/><path class="c" d="M865.416,323.383l-48.267-2.206-10.685-33.266-13.946,1.054,7.453,43.99,43.962,15.073Z" transform="translate(325.486 118.245)"/><circle class="g" cx="10.381" cy="10.381" r="10.381" transform="translate(1206.25 382.187)"/><path class="g" d="M1011.186,482.923a10.376,10.376,0,0,1,12.424-10.164,10.376,10.376,0,1,0-6.471,19.555,10.372,10.372,0,0,1-5.953-9.391Z" transform="translate(195.866 -95.935)"/><path class="g" d="M1013.617,484.6l-14-2.577-10.763,6.746a16.327,16.327,0,0,0-7.521,15.933l10.779-2.732,2.414-6.052,2.875,4.712,11.662,20.39,11.807-6.421,7.524-11.79Z" transform="translate(184.533 -91.722)"/><rect class="b" width="2.821" height="286.26" transform="translate(400.199 129.468) rotate(-60.15)"/><rect class="b" width="286.26" height="2.821" transform="matrix(0.867, -0.498, 0.498, 0.867, 400.194, 269.492)"/><rect class="b" width="2.821" height="113.717" transform="translate(976.885 196.951) rotate(-45)"/><rect class="b" width="113.717" height="2.821" transform="translate(976.885 275.366) rotate(-45)"/></svg>